<mxfile host="Electron" agent="Mozilla/5.0 (Windows NT 10.0; Win64; x64) AppleWebKit/537.36 (KHTML, like Gecko) draw.io/24.7.8 Chrome/128.0.6613.36 Electron/32.0.1 Safari/537.36" version="24.7.8" pages="2">
  <diagram id="3dEVeSJeNKf_m3HsS_za" name="tabla FSM">
    <mxGraphModel dx="2074" dy="1197" grid="1" gridSize="10" guides="1" tooltips="1" connect="1" arrows="1" fold="1" page="1" pageScale="1" pageWidth="1100" pageHeight="850" math="1" shadow="0">
      <root>
        <mxCell id="0" />
        <mxCell id="1" parent="0" />
        <mxCell id="5vSftLr2IqURYU0sIA8H-1" value="" style="shape=table;startSize=0;container=1;collapsible=0;childLayout=tableLayout;" vertex="1" parent="1">
          <mxGeometry x="300" y="220" width="540" height="360" as="geometry" />
        </mxCell>
        <mxCell id="5vSftLr2IqURYU0sIA8H-2" value="" style="shape=tableRow;horizontal=0;startSize=0;swimlaneHead=0;swimlaneBody=0;top=0;left=0;bottom=0;right=0;collapsible=0;dropTarget=0;fillColor=none;points=[[0,0.5],[1,0.5]];portConstraint=eastwest;fontStyle=0;fontSize=13;" vertex="1" parent="5vSftLr2IqURYU0sIA8H-1">
          <mxGeometry width="540" height="40" as="geometry" />
        </mxCell>
        <mxCell id="5vSftLr2IqURYU0sIA8H-3" value="" style="shape=partialRectangle;html=1;whiteSpace=wrap;connectable=0;overflow=hidden;fillColor=none;top=0;left=0;bottom=0;right=0;pointerEvents=1;strokeWidth=1;dashed=1;strokeColor=none;fontStyle=0;fontSize=13;" vertex="1" parent="5vSftLr2IqURYU0sIA8H-2">
          <mxGeometry width="60" height="40" as="geometry">
            <mxRectangle width="60" height="40" as="alternateBounds" />
          </mxGeometry>
        </mxCell>
        <mxCell id="5vSftLr2IqURYU0sIA8H-4" value="0" style="shape=partialRectangle;html=1;whiteSpace=wrap;connectable=0;overflow=hidden;top=0;left=0;bottom=0;right=0;pointerEvents=1;fontStyle=0;fontSize=13;" vertex="1" parent="5vSftLr2IqURYU0sIA8H-2">
          <mxGeometry x="60" width="60" height="40" as="geometry">
            <mxRectangle width="60" height="40" as="alternateBounds" />
          </mxGeometry>
        </mxCell>
        <mxCell id="5vSftLr2IqURYU0sIA8H-5" value="1" style="shape=partialRectangle;html=1;whiteSpace=wrap;connectable=0;overflow=hidden;top=0;left=0;bottom=0;right=0;pointerEvents=1;fontStyle=0;fontSize=13;" vertex="1" parent="5vSftLr2IqURYU0sIA8H-2">
          <mxGeometry x="120" width="60" height="40" as="geometry">
            <mxRectangle width="60" height="40" as="alternateBounds" />
          </mxGeometry>
        </mxCell>
        <mxCell id="5vSftLr2IqURYU0sIA8H-6" value="2" style="shape=partialRectangle;html=1;whiteSpace=wrap;connectable=0;overflow=hidden;top=0;left=0;bottom=0;right=0;pointerEvents=1;fontStyle=0;fontSize=13;" vertex="1" parent="5vSftLr2IqURYU0sIA8H-2">
          <mxGeometry x="180" width="60" height="40" as="geometry">
            <mxRectangle width="60" height="40" as="alternateBounds" />
          </mxGeometry>
        </mxCell>
        <mxCell id="5vSftLr2IqURYU0sIA8H-7" value="3" style="shape=partialRectangle;html=1;whiteSpace=wrap;connectable=0;overflow=hidden;top=0;left=0;bottom=0;right=0;pointerEvents=1;fontStyle=0;fontSize=13;" vertex="1" parent="5vSftLr2IqURYU0sIA8H-2">
          <mxGeometry x="240" width="60" height="40" as="geometry">
            <mxRectangle width="60" height="40" as="alternateBounds" />
          </mxGeometry>
        </mxCell>
        <mxCell id="5vSftLr2IqURYU0sIA8H-8" value="4" style="shape=partialRectangle;html=1;whiteSpace=wrap;connectable=0;overflow=hidden;top=0;left=0;bottom=0;right=0;pointerEvents=1;fontStyle=0;fontSize=13;" vertex="1" parent="5vSftLr2IqURYU0sIA8H-2">
          <mxGeometry x="300" width="60" height="40" as="geometry">
            <mxRectangle width="60" height="40" as="alternateBounds" />
          </mxGeometry>
        </mxCell>
        <mxCell id="5vSftLr2IqURYU0sIA8H-9" value="5" style="shape=partialRectangle;html=1;whiteSpace=wrap;connectable=0;overflow=hidden;top=0;left=0;bottom=0;right=0;pointerEvents=1;fontStyle=0;fontSize=13;" vertex="1" parent="5vSftLr2IqURYU0sIA8H-2">
          <mxGeometry x="360" width="60" height="40" as="geometry">
            <mxRectangle width="60" height="40" as="alternateBounds" />
          </mxGeometry>
        </mxCell>
        <mxCell id="5vSftLr2IqURYU0sIA8H-10" value="6" style="shape=partialRectangle;html=1;whiteSpace=wrap;connectable=0;overflow=hidden;top=0;left=0;bottom=0;right=0;pointerEvents=1;fontStyle=0;fontSize=13;" vertex="1" parent="5vSftLr2IqURYU0sIA8H-2">
          <mxGeometry x="420" width="60" height="40" as="geometry">
            <mxRectangle width="60" height="40" as="alternateBounds" />
          </mxGeometry>
        </mxCell>
        <mxCell id="5vSftLr2IqURYU0sIA8H-11" value="7" style="shape=partialRectangle;html=1;whiteSpace=wrap;connectable=0;overflow=hidden;top=0;left=0;bottom=0;right=0;pointerEvents=1;fontStyle=0;fontSize=13;" vertex="1" parent="5vSftLr2IqURYU0sIA8H-2">
          <mxGeometry x="480" width="60" height="40" as="geometry">
            <mxRectangle width="60" height="40" as="alternateBounds" />
          </mxGeometry>
        </mxCell>
        <mxCell id="5vSftLr2IqURYU0sIA8H-12" value="" style="shape=tableRow;horizontal=0;startSize=0;swimlaneHead=0;swimlaneBody=0;top=0;left=0;bottom=0;right=0;collapsible=0;dropTarget=0;fillColor=none;points=[[0,0.5],[1,0.5]];portConstraint=eastwest;" vertex="1" parent="5vSftLr2IqURYU0sIA8H-1">
          <mxGeometry y="40" width="540" height="40" as="geometry" />
        </mxCell>
        <mxCell id="5vSftLr2IqURYU0sIA8H-13" value="0" style="shape=partialRectangle;html=1;whiteSpace=wrap;connectable=0;overflow=hidden;top=0;left=0;bottom=0;right=0;pointerEvents=1;fontStyle=0;fontSize=13;" vertex="1" parent="5vSftLr2IqURYU0sIA8H-12">
          <mxGeometry width="60" height="40" as="geometry">
            <mxRectangle width="60" height="40" as="alternateBounds" />
          </mxGeometry>
        </mxCell>
        <mxCell id="5vSftLr2IqURYU0sIA8H-14" value="0" style="shape=partialRectangle;html=1;whiteSpace=wrap;connectable=0;overflow=hidden;fillColor=#1ba1e2;top=0;left=0;bottom=0;right=0;pointerEvents=1;fontColor=#000000;strokeColor=#006EAF;fontSize=16;fontStyle=1" vertex="1" parent="5vSftLr2IqURYU0sIA8H-12">
          <mxGeometry x="60" width="60" height="40" as="geometry">
            <mxRectangle width="60" height="40" as="alternateBounds" />
          </mxGeometry>
        </mxCell>
        <mxCell id="5vSftLr2IqURYU0sIA8H-15" value="8" style="shape=partialRectangle;html=1;whiteSpace=wrap;connectable=0;overflow=hidden;fillColor=#1ba1e2;top=0;left=0;bottom=0;right=0;pointerEvents=1;fontColor=#000000;strokeColor=#006EAF;fontSize=16;fontStyle=1" vertex="1" parent="5vSftLr2IqURYU0sIA8H-12">
          <mxGeometry x="120" width="60" height="40" as="geometry">
            <mxRectangle width="60" height="40" as="alternateBounds" />
          </mxGeometry>
        </mxCell>
        <mxCell id="5vSftLr2IqURYU0sIA8H-16" value="4" style="shape=partialRectangle;html=1;whiteSpace=wrap;connectable=0;overflow=hidden;fillColor=#1ba1e2;top=0;left=0;bottom=0;right=0;pointerEvents=1;fontColor=#000000;strokeColor=#006EAF;fontSize=16;fontStyle=1" vertex="1" parent="5vSftLr2IqURYU0sIA8H-12">
          <mxGeometry x="180" width="60" height="40" as="geometry">
            <mxRectangle width="60" height="40" as="alternateBounds" />
          </mxGeometry>
        </mxCell>
        <mxCell id="5vSftLr2IqURYU0sIA8H-17" value="12" style="shape=partialRectangle;html=1;whiteSpace=wrap;connectable=0;overflow=hidden;fillColor=#1ba1e2;top=0;left=0;bottom=0;right=0;pointerEvents=1;fontColor=#000000;strokeColor=#006EAF;fontSize=16;fontStyle=1" vertex="1" parent="5vSftLr2IqURYU0sIA8H-12">
          <mxGeometry x="240" width="60" height="40" as="geometry">
            <mxRectangle width="60" height="40" as="alternateBounds" />
          </mxGeometry>
        </mxCell>
        <mxCell id="5vSftLr2IqURYU0sIA8H-18" value="2" style="shape=partialRectangle;html=1;whiteSpace=wrap;connectable=0;overflow=hidden;fillColor=#1ba1e2;top=0;left=0;bottom=0;right=0;pointerEvents=1;fontColor=#000000;strokeColor=#006EAF;fontSize=16;fontStyle=1" vertex="1" parent="5vSftLr2IqURYU0sIA8H-12">
          <mxGeometry x="300" width="60" height="40" as="geometry">
            <mxRectangle width="60" height="40" as="alternateBounds" />
          </mxGeometry>
        </mxCell>
        <mxCell id="5vSftLr2IqURYU0sIA8H-19" value="10" style="shape=partialRectangle;html=1;whiteSpace=wrap;connectable=0;overflow=hidden;fillColor=#1ba1e2;top=0;left=0;bottom=0;right=0;pointerEvents=1;fontColor=#000000;strokeColor=#006EAF;fontSize=16;fontStyle=1" vertex="1" parent="5vSftLr2IqURYU0sIA8H-12">
          <mxGeometry x="360" width="60" height="40" as="geometry">
            <mxRectangle width="60" height="40" as="alternateBounds" />
          </mxGeometry>
        </mxCell>
        <mxCell id="5vSftLr2IqURYU0sIA8H-20" value="6" style="shape=partialRectangle;html=1;whiteSpace=wrap;connectable=0;overflow=hidden;fillColor=#1ba1e2;top=0;left=0;bottom=0;right=0;pointerEvents=1;fontColor=#000000;strokeColor=#006EAF;fontSize=16;fontStyle=1" vertex="1" parent="5vSftLr2IqURYU0sIA8H-12">
          <mxGeometry x="420" width="60" height="40" as="geometry">
            <mxRectangle width="60" height="40" as="alternateBounds" />
          </mxGeometry>
        </mxCell>
        <mxCell id="5vSftLr2IqURYU0sIA8H-21" value="14" style="shape=partialRectangle;html=1;whiteSpace=wrap;connectable=0;overflow=hidden;fillColor=#1ba1e2;top=0;left=0;bottom=0;right=0;pointerEvents=1;fontColor=#000000;strokeColor=#006EAF;fontSize=16;fontStyle=1" vertex="1" parent="5vSftLr2IqURYU0sIA8H-12">
          <mxGeometry x="480" width="60" height="40" as="geometry">
            <mxRectangle width="60" height="40" as="alternateBounds" />
          </mxGeometry>
        </mxCell>
        <mxCell id="5vSftLr2IqURYU0sIA8H-22" value="" style="shape=tableRow;horizontal=0;startSize=0;swimlaneHead=0;swimlaneBody=0;top=0;left=0;bottom=0;right=0;collapsible=0;dropTarget=0;fillColor=none;points=[[0,0.5],[1,0.5]];portConstraint=eastwest;" vertex="1" parent="5vSftLr2IqURYU0sIA8H-1">
          <mxGeometry y="80" width="540" height="40" as="geometry" />
        </mxCell>
        <mxCell id="5vSftLr2IqURYU0sIA8H-23" value="1" style="shape=partialRectangle;html=1;whiteSpace=wrap;connectable=0;overflow=hidden;top=0;left=0;bottom=0;right=0;pointerEvents=1;fontStyle=0;fontSize=13;" vertex="1" parent="5vSftLr2IqURYU0sIA8H-22">
          <mxGeometry width="60" height="40" as="geometry">
            <mxRectangle width="60" height="40" as="alternateBounds" />
          </mxGeometry>
        </mxCell>
        <mxCell id="5vSftLr2IqURYU0sIA8H-24" value="4" style="shape=partialRectangle;html=1;whiteSpace=wrap;connectable=0;overflow=hidden;fillColor=none;top=0;left=0;bottom=0;right=0;pointerEvents=1;fontSize=16;fontStyle=1;fontColor=#000000;" vertex="1" parent="5vSftLr2IqURYU0sIA8H-22">
          <mxGeometry x="60" width="60" height="40" as="geometry">
            <mxRectangle width="60" height="40" as="alternateBounds" />
          </mxGeometry>
        </mxCell>
        <mxCell id="5vSftLr2IqURYU0sIA8H-25" value="12" style="shape=partialRectangle;html=1;whiteSpace=wrap;connectable=0;overflow=hidden;fillColor=#d80073;top=0;left=0;bottom=0;right=0;pointerEvents=1;fontColor=#000000;strokeColor=#A50040;fontSize=16;fontStyle=1" vertex="1" parent="5vSftLr2IqURYU0sIA8H-22">
          <mxGeometry x="120" width="60" height="40" as="geometry">
            <mxRectangle width="60" height="40" as="alternateBounds" />
          </mxGeometry>
        </mxCell>
        <mxCell id="5vSftLr2IqURYU0sIA8H-26" value="2" style="shape=partialRectangle;html=1;whiteSpace=wrap;connectable=0;overflow=hidden;fillColor=none;top=0;left=0;bottom=0;right=0;pointerEvents=1;fontSize=16;fontStyle=1;fontColor=#000000;" vertex="1" parent="5vSftLr2IqURYU0sIA8H-22">
          <mxGeometry x="180" width="60" height="40" as="geometry">
            <mxRectangle width="60" height="40" as="alternateBounds" />
          </mxGeometry>
        </mxCell>
        <mxCell id="5vSftLr2IqURYU0sIA8H-27" value="10" style="shape=partialRectangle;html=1;whiteSpace=wrap;connectable=0;overflow=hidden;fillColor=#fa6800;top=0;left=0;bottom=0;right=0;pointerEvents=1;fontColor=#000000;strokeColor=#C73500;fontSize=16;fontStyle=1" vertex="1" parent="5vSftLr2IqURYU0sIA8H-22">
          <mxGeometry x="240" width="60" height="40" as="geometry">
            <mxRectangle width="60" height="40" as="alternateBounds" />
          </mxGeometry>
        </mxCell>
        <mxCell id="5vSftLr2IqURYU0sIA8H-28" value="6" style="shape=partialRectangle;html=1;whiteSpace=wrap;connectable=0;overflow=hidden;fillColor=none;top=0;left=0;bottom=0;right=0;pointerEvents=1;fontSize=16;fontStyle=1;fontColor=#000000;" vertex="1" parent="5vSftLr2IqURYU0sIA8H-22">
          <mxGeometry x="300" width="60" height="40" as="geometry">
            <mxRectangle width="60" height="40" as="alternateBounds" />
          </mxGeometry>
        </mxCell>
        <mxCell id="5vSftLr2IqURYU0sIA8H-29" value="14" style="shape=partialRectangle;html=1;whiteSpace=wrap;connectable=0;overflow=hidden;fillColor=#e3c800;top=0;left=0;bottom=0;right=0;pointerEvents=1;fontColor=#000000;strokeColor=#B09500;fontSize=16;fontStyle=1" vertex="1" parent="5vSftLr2IqURYU0sIA8H-22">
          <mxGeometry x="360" width="60" height="40" as="geometry">
            <mxRectangle width="60" height="40" as="alternateBounds" />
          </mxGeometry>
        </mxCell>
        <mxCell id="5vSftLr2IqURYU0sIA8H-30" value="0" style="shape=partialRectangle;html=1;whiteSpace=wrap;connectable=0;overflow=hidden;fillColor=none;top=0;left=0;bottom=0;right=0;pointerEvents=1;fontSize=16;fontStyle=1;fontColor=#000000;" vertex="1" parent="5vSftLr2IqURYU0sIA8H-22">
          <mxGeometry x="420" width="60" height="40" as="geometry">
            <mxRectangle width="60" height="40" as="alternateBounds" />
          </mxGeometry>
        </mxCell>
        <mxCell id="5vSftLr2IqURYU0sIA8H-31" value="8" style="shape=partialRectangle;html=1;whiteSpace=wrap;connectable=0;overflow=hidden;fillColor=#60a917;top=0;left=0;bottom=0;right=0;pointerEvents=1;fontColor=#000000;strokeColor=#2D7600;fontSize=16;fontStyle=1" vertex="1" parent="5vSftLr2IqURYU0sIA8H-22">
          <mxGeometry x="480" width="60" height="40" as="geometry">
            <mxRectangle width="60" height="40" as="alternateBounds" />
          </mxGeometry>
        </mxCell>
        <mxCell id="5vSftLr2IqURYU0sIA8H-32" value="" style="shape=tableRow;horizontal=0;startSize=0;swimlaneHead=0;swimlaneBody=0;top=0;left=0;bottom=0;right=0;collapsible=0;dropTarget=0;fillColor=none;points=[[0,0.5],[1,0.5]];portConstraint=eastwest;" vertex="1" parent="5vSftLr2IqURYU0sIA8H-1">
          <mxGeometry y="120" width="540" height="40" as="geometry" />
        </mxCell>
        <mxCell id="5vSftLr2IqURYU0sIA8H-33" value="2" style="shape=partialRectangle;html=1;whiteSpace=wrap;connectable=0;overflow=hidden;top=0;left=0;bottom=0;right=0;pointerEvents=1;fontStyle=0;fontSize=13;" vertex="1" parent="5vSftLr2IqURYU0sIA8H-32">
          <mxGeometry width="60" height="40" as="geometry">
            <mxRectangle width="60" height="40" as="alternateBounds" />
          </mxGeometry>
        </mxCell>
        <mxCell id="5vSftLr2IqURYU0sIA8H-34" value="1" style="shape=partialRectangle;html=1;whiteSpace=wrap;connectable=0;overflow=hidden;fillColor=#008a00;top=0;left=0;bottom=0;right=0;pointerEvents=1;fontColor=#000000;strokeColor=#005700;fontSize=16;fontStyle=1" vertex="1" parent="5vSftLr2IqURYU0sIA8H-32">
          <mxGeometry x="60" width="60" height="40" as="geometry">
            <mxRectangle width="60" height="40" as="alternateBounds" />
          </mxGeometry>
        </mxCell>
        <mxCell id="5vSftLr2IqURYU0sIA8H-35" value="9" style="shape=partialRectangle;html=1;whiteSpace=wrap;connectable=0;overflow=hidden;fillColor=#008a00;top=0;left=0;bottom=0;right=0;pointerEvents=1;fontColor=#000000;strokeColor=#005700;fontSize=16;fontStyle=1" vertex="1" parent="5vSftLr2IqURYU0sIA8H-32">
          <mxGeometry x="120" width="60" height="40" as="geometry">
            <mxRectangle width="60" height="40" as="alternateBounds" />
          </mxGeometry>
        </mxCell>
        <mxCell id="5vSftLr2IqURYU0sIA8H-36" value="5" style="shape=partialRectangle;html=1;whiteSpace=wrap;connectable=0;overflow=hidden;fillColor=#008a00;top=0;left=0;bottom=0;right=0;pointerEvents=1;fontColor=#000000;strokeColor=#005700;fontSize=16;fontStyle=1" vertex="1" parent="5vSftLr2IqURYU0sIA8H-32">
          <mxGeometry x="180" width="60" height="40" as="geometry">
            <mxRectangle width="60" height="40" as="alternateBounds" />
          </mxGeometry>
        </mxCell>
        <mxCell id="5vSftLr2IqURYU0sIA8H-37" value="13" style="shape=partialRectangle;html=1;whiteSpace=wrap;connectable=0;overflow=hidden;fillColor=#008a00;top=0;left=0;bottom=0;right=0;pointerEvents=1;fontColor=#000000;strokeColor=#005700;fontSize=16;fontStyle=1" vertex="1" parent="5vSftLr2IqURYU0sIA8H-32">
          <mxGeometry x="240" width="60" height="40" as="geometry">
            <mxRectangle width="60" height="40" as="alternateBounds" />
          </mxGeometry>
        </mxCell>
        <mxCell id="5vSftLr2IqURYU0sIA8H-38" value="3" style="shape=partialRectangle;html=1;whiteSpace=wrap;connectable=0;overflow=hidden;fillColor=#008a00;top=0;left=0;bottom=0;right=0;pointerEvents=1;fontColor=#000000;strokeColor=#005700;fontSize=16;fontStyle=1" vertex="1" parent="5vSftLr2IqURYU0sIA8H-32">
          <mxGeometry x="300" width="60" height="40" as="geometry">
            <mxRectangle width="60" height="40" as="alternateBounds" />
          </mxGeometry>
        </mxCell>
        <mxCell id="5vSftLr2IqURYU0sIA8H-39" value="11" style="shape=partialRectangle;html=1;whiteSpace=wrap;connectable=0;overflow=hidden;fillColor=#008a00;top=0;left=0;bottom=0;right=0;pointerEvents=1;fontColor=#000000;strokeColor=#005700;fontSize=16;fontStyle=1" vertex="1" parent="5vSftLr2IqURYU0sIA8H-32">
          <mxGeometry x="360" width="60" height="40" as="geometry">
            <mxRectangle width="60" height="40" as="alternateBounds" />
          </mxGeometry>
        </mxCell>
        <mxCell id="5vSftLr2IqURYU0sIA8H-40" value="7" style="shape=partialRectangle;html=1;whiteSpace=wrap;connectable=0;overflow=hidden;fillColor=#008a00;top=0;left=0;bottom=0;right=0;pointerEvents=1;fontColor=#000000;strokeColor=#005700;fontSize=16;fontStyle=1" vertex="1" parent="5vSftLr2IqURYU0sIA8H-32">
          <mxGeometry x="420" width="60" height="40" as="geometry">
            <mxRectangle width="60" height="40" as="alternateBounds" />
          </mxGeometry>
        </mxCell>
        <mxCell id="5vSftLr2IqURYU0sIA8H-41" value="15" style="shape=partialRectangle;html=1;whiteSpace=wrap;connectable=0;overflow=hidden;fillColor=#008a00;top=0;left=0;bottom=0;right=0;pointerEvents=1;fontColor=#000000;strokeColor=#005700;fontSize=16;fontStyle=1" vertex="1" parent="5vSftLr2IqURYU0sIA8H-32">
          <mxGeometry x="480" width="60" height="40" as="geometry">
            <mxRectangle width="60" height="40" as="alternateBounds" />
          </mxGeometry>
        </mxCell>
        <mxCell id="5vSftLr2IqURYU0sIA8H-42" value="" style="shape=tableRow;horizontal=0;startSize=0;swimlaneHead=0;swimlaneBody=0;top=0;left=0;bottom=0;right=0;collapsible=0;dropTarget=0;fillColor=none;points=[[0,0.5],[1,0.5]];portConstraint=eastwest;" vertex="1" parent="5vSftLr2IqURYU0sIA8H-1">
          <mxGeometry y="160" width="540" height="40" as="geometry" />
        </mxCell>
        <mxCell id="5vSftLr2IqURYU0sIA8H-43" value="3" style="shape=partialRectangle;html=1;whiteSpace=wrap;connectable=0;overflow=hidden;top=0;left=0;bottom=0;right=0;pointerEvents=1;fontStyle=0;fontSize=13;" vertex="1" parent="5vSftLr2IqURYU0sIA8H-42">
          <mxGeometry width="60" height="40" as="geometry">
            <mxRectangle width="60" height="40" as="alternateBounds" />
          </mxGeometry>
        </mxCell>
        <mxCell id="5vSftLr2IqURYU0sIA8H-44" value="5" style="shape=partialRectangle;html=1;whiteSpace=wrap;connectable=0;overflow=hidden;fillColor=none;top=0;left=0;bottom=0;right=0;pointerEvents=1;fontSize=16;fontStyle=1;fontColor=#000000;" vertex="1" parent="5vSftLr2IqURYU0sIA8H-42">
          <mxGeometry x="60" width="60" height="40" as="geometry">
            <mxRectangle width="60" height="40" as="alternateBounds" />
          </mxGeometry>
        </mxCell>
        <mxCell id="5vSftLr2IqURYU0sIA8H-45" value="13" style="shape=partialRectangle;html=1;whiteSpace=wrap;connectable=0;overflow=hidden;fillColor=#d80073;top=0;left=0;bottom=0;right=0;pointerEvents=1;fontColor=#000000;strokeColor=#A50040;fontSize=16;fontStyle=1" vertex="1" parent="5vSftLr2IqURYU0sIA8H-42">
          <mxGeometry x="120" width="60" height="40" as="geometry">
            <mxRectangle width="60" height="40" as="alternateBounds" />
          </mxGeometry>
        </mxCell>
        <mxCell id="5vSftLr2IqURYU0sIA8H-46" value="3" style="shape=partialRectangle;html=1;whiteSpace=wrap;connectable=0;overflow=hidden;fillColor=none;top=0;left=0;bottom=0;right=0;pointerEvents=1;fontSize=16;fontStyle=1;fontColor=#000000;" vertex="1" parent="5vSftLr2IqURYU0sIA8H-42">
          <mxGeometry x="180" width="60" height="40" as="geometry">
            <mxRectangle width="60" height="40" as="alternateBounds" />
          </mxGeometry>
        </mxCell>
        <mxCell id="5vSftLr2IqURYU0sIA8H-47" value="11" style="shape=partialRectangle;html=1;whiteSpace=wrap;connectable=0;overflow=hidden;fillColor=#fa6800;top=0;left=0;bottom=0;right=0;pointerEvents=1;fontColor=#000000;strokeColor=#C73500;fontSize=16;fontStyle=1" vertex="1" parent="5vSftLr2IqURYU0sIA8H-42">
          <mxGeometry x="240" width="60" height="40" as="geometry">
            <mxRectangle width="60" height="40" as="alternateBounds" />
          </mxGeometry>
        </mxCell>
        <mxCell id="5vSftLr2IqURYU0sIA8H-48" value="7" style="shape=partialRectangle;html=1;whiteSpace=wrap;connectable=0;overflow=hidden;fillColor=none;top=0;left=0;bottom=0;right=0;pointerEvents=1;fontSize=16;fontStyle=1;fontColor=#000000;" vertex="1" parent="5vSftLr2IqURYU0sIA8H-42">
          <mxGeometry x="300" width="60" height="40" as="geometry">
            <mxRectangle width="60" height="40" as="alternateBounds" />
          </mxGeometry>
        </mxCell>
        <mxCell id="5vSftLr2IqURYU0sIA8H-49" value="15" style="shape=partialRectangle;html=1;whiteSpace=wrap;connectable=0;overflow=hidden;fillColor=#e3c800;top=0;left=0;bottom=0;right=0;pointerEvents=1;fontColor=#000000;strokeColor=#B09500;fontSize=16;fontStyle=1" vertex="1" parent="5vSftLr2IqURYU0sIA8H-42">
          <mxGeometry x="360" width="60" height="40" as="geometry">
            <mxRectangle width="60" height="40" as="alternateBounds" />
          </mxGeometry>
        </mxCell>
        <mxCell id="5vSftLr2IqURYU0sIA8H-50" value="1" style="shape=partialRectangle;html=1;whiteSpace=wrap;connectable=0;overflow=hidden;fillColor=none;top=0;left=0;bottom=0;right=0;pointerEvents=1;fontSize=16;fontStyle=1;fontColor=#000000;" vertex="1" parent="5vSftLr2IqURYU0sIA8H-42">
          <mxGeometry x="420" width="60" height="40" as="geometry">
            <mxRectangle width="60" height="40" as="alternateBounds" />
          </mxGeometry>
        </mxCell>
        <mxCell id="5vSftLr2IqURYU0sIA8H-51" value="9" style="shape=partialRectangle;html=1;whiteSpace=wrap;connectable=0;overflow=hidden;fillColor=#60a917;top=0;left=0;bottom=0;right=0;pointerEvents=1;fontColor=#000000;strokeColor=#2D7600;fontSize=16;fontStyle=1" vertex="1" parent="5vSftLr2IqURYU0sIA8H-42">
          <mxGeometry x="480" width="60" height="40" as="geometry">
            <mxRectangle width="60" height="40" as="alternateBounds" />
          </mxGeometry>
        </mxCell>
        <mxCell id="5vSftLr2IqURYU0sIA8H-52" value="" style="shape=tableRow;horizontal=0;startSize=0;swimlaneHead=0;swimlaneBody=0;top=0;left=0;bottom=0;right=0;collapsible=0;dropTarget=0;fillColor=none;points=[[0,0.5],[1,0.5]];portConstraint=eastwest;" vertex="1" parent="5vSftLr2IqURYU0sIA8H-1">
          <mxGeometry y="200" width="540" height="40" as="geometry" />
        </mxCell>
        <mxCell id="5vSftLr2IqURYU0sIA8H-53" value="4" style="shape=partialRectangle;html=1;whiteSpace=wrap;connectable=0;overflow=hidden;top=0;left=0;bottom=0;right=0;pointerEvents=1;fontStyle=0;fontSize=13;" vertex="1" parent="5vSftLr2IqURYU0sIA8H-52">
          <mxGeometry width="60" height="40" as="geometry">
            <mxRectangle width="60" height="40" as="alternateBounds" />
          </mxGeometry>
        </mxCell>
        <mxCell id="5vSftLr2IqURYU0sIA8H-54" value="3" style="shape=partialRectangle;html=1;whiteSpace=wrap;connectable=0;overflow=hidden;fillColor=#0050ef;top=0;left=0;bottom=0;right=0;pointerEvents=1;fontColor=#000000;strokeColor=#001DBC;fontSize=16;fontStyle=1" vertex="1" parent="5vSftLr2IqURYU0sIA8H-52">
          <mxGeometry x="60" width="60" height="40" as="geometry">
            <mxRectangle width="60" height="40" as="alternateBounds" />
          </mxGeometry>
        </mxCell>
        <mxCell id="5vSftLr2IqURYU0sIA8H-55" value="11" style="shape=partialRectangle;html=1;whiteSpace=wrap;connectable=0;overflow=hidden;fillColor=#0050ef;top=0;left=0;bottom=0;right=0;pointerEvents=1;fontColor=#000000;strokeColor=#001DBC;fontSize=16;fontStyle=1" vertex="1" parent="5vSftLr2IqURYU0sIA8H-52">
          <mxGeometry x="120" width="60" height="40" as="geometry">
            <mxRectangle width="60" height="40" as="alternateBounds" />
          </mxGeometry>
        </mxCell>
        <mxCell id="5vSftLr2IqURYU0sIA8H-56" value="7" style="shape=partialRectangle;html=1;whiteSpace=wrap;connectable=0;overflow=hidden;fillColor=#0050ef;top=0;left=0;bottom=0;right=0;pointerEvents=1;fontColor=#000000;strokeColor=#001DBC;fontSize=16;fontStyle=1" vertex="1" parent="5vSftLr2IqURYU0sIA8H-52">
          <mxGeometry x="180" width="60" height="40" as="geometry">
            <mxRectangle width="60" height="40" as="alternateBounds" />
          </mxGeometry>
        </mxCell>
        <mxCell id="5vSftLr2IqURYU0sIA8H-57" value="15" style="shape=partialRectangle;html=1;whiteSpace=wrap;connectable=0;overflow=hidden;fillColor=#0050ef;top=0;left=0;bottom=0;right=0;pointerEvents=1;fontColor=#000000;strokeColor=#001DBC;fontSize=16;fontStyle=1" vertex="1" parent="5vSftLr2IqURYU0sIA8H-52">
          <mxGeometry x="240" width="60" height="40" as="geometry">
            <mxRectangle width="60" height="40" as="alternateBounds" />
          </mxGeometry>
        </mxCell>
        <mxCell id="5vSftLr2IqURYU0sIA8H-58" value="1" style="shape=partialRectangle;html=1;whiteSpace=wrap;connectable=0;overflow=hidden;fillColor=#0050ef;top=0;left=0;bottom=0;right=0;pointerEvents=1;fontColor=#000000;strokeColor=#001DBC;fontSize=16;fontStyle=1" vertex="1" parent="5vSftLr2IqURYU0sIA8H-52">
          <mxGeometry x="300" width="60" height="40" as="geometry">
            <mxRectangle width="60" height="40" as="alternateBounds" />
          </mxGeometry>
        </mxCell>
        <mxCell id="5vSftLr2IqURYU0sIA8H-59" value="9" style="shape=partialRectangle;html=1;whiteSpace=wrap;connectable=0;overflow=hidden;fillColor=#0050ef;top=0;left=0;bottom=0;right=0;pointerEvents=1;fontColor=#000000;strokeColor=#001DBC;fontSize=16;fontStyle=1" vertex="1" parent="5vSftLr2IqURYU0sIA8H-52">
          <mxGeometry x="360" width="60" height="40" as="geometry">
            <mxRectangle width="60" height="40" as="alternateBounds" />
          </mxGeometry>
        </mxCell>
        <mxCell id="5vSftLr2IqURYU0sIA8H-60" value="5" style="shape=partialRectangle;html=1;whiteSpace=wrap;connectable=0;overflow=hidden;fillColor=#0050ef;top=0;left=0;bottom=0;right=0;pointerEvents=1;fontColor=#000000;strokeColor=#001DBC;fontSize=16;fontStyle=1" vertex="1" parent="5vSftLr2IqURYU0sIA8H-52">
          <mxGeometry x="420" width="60" height="40" as="geometry">
            <mxRectangle width="60" height="40" as="alternateBounds" />
          </mxGeometry>
        </mxCell>
        <mxCell id="5vSftLr2IqURYU0sIA8H-61" value="13" style="shape=partialRectangle;html=1;whiteSpace=wrap;connectable=0;overflow=hidden;fillColor=#0050ef;top=0;left=0;bottom=0;right=0;pointerEvents=1;fontColor=#000000;strokeColor=#001DBC;fontSize=16;fontStyle=1" vertex="1" parent="5vSftLr2IqURYU0sIA8H-52">
          <mxGeometry x="480" width="60" height="40" as="geometry">
            <mxRectangle width="60" height="40" as="alternateBounds" />
          </mxGeometry>
        </mxCell>
        <mxCell id="5vSftLr2IqURYU0sIA8H-62" value="" style="shape=tableRow;horizontal=0;startSize=0;swimlaneHead=0;swimlaneBody=0;top=0;left=0;bottom=0;right=0;collapsible=0;dropTarget=0;fillColor=none;points=[[0,0.5],[1,0.5]];portConstraint=eastwest;" vertex="1" parent="5vSftLr2IqURYU0sIA8H-1">
          <mxGeometry y="240" width="540" height="40" as="geometry" />
        </mxCell>
        <mxCell id="5vSftLr2IqURYU0sIA8H-63" value="5" style="shape=partialRectangle;html=1;whiteSpace=wrap;connectable=0;overflow=hidden;top=0;left=0;bottom=0;right=0;pointerEvents=1;fontStyle=0;fontSize=13;" vertex="1" parent="5vSftLr2IqURYU0sIA8H-62">
          <mxGeometry width="60" height="40" as="geometry">
            <mxRectangle width="60" height="40" as="alternateBounds" />
          </mxGeometry>
        </mxCell>
        <mxCell id="5vSftLr2IqURYU0sIA8H-64" value="7" style="shape=partialRectangle;html=1;whiteSpace=wrap;connectable=0;overflow=hidden;fillColor=none;top=0;left=0;bottom=0;right=0;pointerEvents=1;fontSize=16;fontStyle=1;fontColor=#000000;" vertex="1" parent="5vSftLr2IqURYU0sIA8H-62">
          <mxGeometry x="60" width="60" height="40" as="geometry">
            <mxRectangle width="60" height="40" as="alternateBounds" />
          </mxGeometry>
        </mxCell>
        <mxCell id="5vSftLr2IqURYU0sIA8H-65" value="15" style="shape=partialRectangle;html=1;whiteSpace=wrap;connectable=0;overflow=hidden;fillColor=#d80073;top=0;left=0;bottom=0;right=0;pointerEvents=1;fontColor=#000000;strokeColor=#A50040;fontSize=16;fontStyle=1" vertex="1" parent="5vSftLr2IqURYU0sIA8H-62">
          <mxGeometry x="120" width="60" height="40" as="geometry">
            <mxRectangle width="60" height="40" as="alternateBounds" />
          </mxGeometry>
        </mxCell>
        <mxCell id="5vSftLr2IqURYU0sIA8H-66" value="1" style="shape=partialRectangle;html=1;whiteSpace=wrap;connectable=0;overflow=hidden;fillColor=none;top=0;left=0;bottom=0;right=0;pointerEvents=1;fontSize=16;fontStyle=1;fontColor=#000000;" vertex="1" parent="5vSftLr2IqURYU0sIA8H-62">
          <mxGeometry x="180" width="60" height="40" as="geometry">
            <mxRectangle width="60" height="40" as="alternateBounds" />
          </mxGeometry>
        </mxCell>
        <mxCell id="5vSftLr2IqURYU0sIA8H-67" value="9" style="shape=partialRectangle;html=1;whiteSpace=wrap;connectable=0;overflow=hidden;fillColor=#fa6800;top=0;left=0;bottom=0;right=0;pointerEvents=1;fontColor=#000000;strokeColor=#C73500;fontSize=16;fontStyle=1" vertex="1" parent="5vSftLr2IqURYU0sIA8H-62">
          <mxGeometry x="240" width="60" height="40" as="geometry">
            <mxRectangle width="60" height="40" as="alternateBounds" />
          </mxGeometry>
        </mxCell>
        <mxCell id="5vSftLr2IqURYU0sIA8H-68" value="5" style="shape=partialRectangle;html=1;whiteSpace=wrap;connectable=0;overflow=hidden;fillColor=none;top=0;left=0;bottom=0;right=0;pointerEvents=1;fontSize=16;fontStyle=1;fontColor=#000000;" vertex="1" parent="5vSftLr2IqURYU0sIA8H-62">
          <mxGeometry x="300" width="60" height="40" as="geometry">
            <mxRectangle width="60" height="40" as="alternateBounds" />
          </mxGeometry>
        </mxCell>
        <mxCell id="5vSftLr2IqURYU0sIA8H-69" value="13" style="shape=partialRectangle;html=1;whiteSpace=wrap;connectable=0;overflow=hidden;fillColor=#e3c800;top=0;left=0;bottom=0;right=0;pointerEvents=1;fontColor=#000000;strokeColor=#B09500;fontSize=16;fontStyle=1" vertex="1" parent="5vSftLr2IqURYU0sIA8H-62">
          <mxGeometry x="360" width="60" height="40" as="geometry">
            <mxRectangle width="60" height="40" as="alternateBounds" />
          </mxGeometry>
        </mxCell>
        <mxCell id="5vSftLr2IqURYU0sIA8H-70" value="3" style="shape=partialRectangle;html=1;whiteSpace=wrap;connectable=0;overflow=hidden;fillColor=none;top=0;left=0;bottom=0;right=0;pointerEvents=1;fontSize=16;fontStyle=1;fontColor=#000000;" vertex="1" parent="5vSftLr2IqURYU0sIA8H-62">
          <mxGeometry x="420" width="60" height="40" as="geometry">
            <mxRectangle width="60" height="40" as="alternateBounds" />
          </mxGeometry>
        </mxCell>
        <mxCell id="5vSftLr2IqURYU0sIA8H-71" value="11" style="shape=partialRectangle;html=1;whiteSpace=wrap;connectable=0;overflow=hidden;fillColor=#60a917;top=0;left=0;bottom=0;right=0;pointerEvents=1;fontColor=#000000;strokeColor=#2D7600;fontSize=16;fontStyle=1" vertex="1" parent="5vSftLr2IqURYU0sIA8H-62">
          <mxGeometry x="480" width="60" height="40" as="geometry">
            <mxRectangle width="60" height="40" as="alternateBounds" />
          </mxGeometry>
        </mxCell>
        <mxCell id="5vSftLr2IqURYU0sIA8H-72" value="" style="shape=tableRow;horizontal=0;startSize=0;swimlaneHead=0;swimlaneBody=0;top=0;left=0;bottom=0;right=0;collapsible=0;dropTarget=0;fillColor=none;points=[[0,0.5],[1,0.5]];portConstraint=eastwest;" vertex="1" parent="5vSftLr2IqURYU0sIA8H-1">
          <mxGeometry y="280" width="540" height="40" as="geometry" />
        </mxCell>
        <mxCell id="5vSftLr2IqURYU0sIA8H-73" value="6" style="shape=partialRectangle;html=1;whiteSpace=wrap;connectable=0;overflow=hidden;top=0;left=0;bottom=0;right=0;pointerEvents=1;fontStyle=0;fontSize=13;" vertex="1" parent="5vSftLr2IqURYU0sIA8H-72">
          <mxGeometry width="60" height="40" as="geometry">
            <mxRectangle width="60" height="40" as="alternateBounds" />
          </mxGeometry>
        </mxCell>
        <mxCell id="5vSftLr2IqURYU0sIA8H-74" value="2" style="shape=partialRectangle;html=1;whiteSpace=wrap;connectable=0;overflow=hidden;fillColor=#6a00ff;top=0;left=0;bottom=0;right=0;pointerEvents=1;fontColor=#000000;strokeColor=#3700CC;fontSize=16;fontStyle=1" vertex="1" parent="5vSftLr2IqURYU0sIA8H-72">
          <mxGeometry x="60" width="60" height="40" as="geometry">
            <mxRectangle width="60" height="40" as="alternateBounds" />
          </mxGeometry>
        </mxCell>
        <mxCell id="5vSftLr2IqURYU0sIA8H-75" value="10" style="shape=partialRectangle;html=1;whiteSpace=wrap;connectable=0;overflow=hidden;fillColor=#6a00ff;top=0;left=0;bottom=0;right=0;pointerEvents=1;fontColor=#000000;strokeColor=#3700CC;fontSize=16;fontStyle=1" vertex="1" parent="5vSftLr2IqURYU0sIA8H-72">
          <mxGeometry x="120" width="60" height="40" as="geometry">
            <mxRectangle width="60" height="40" as="alternateBounds" />
          </mxGeometry>
        </mxCell>
        <mxCell id="5vSftLr2IqURYU0sIA8H-76" value="6" style="shape=partialRectangle;html=1;whiteSpace=wrap;connectable=0;overflow=hidden;fillColor=#6a00ff;top=0;left=0;bottom=0;right=0;pointerEvents=1;fontColor=#000000;strokeColor=#3700CC;fontSize=16;fontStyle=1" vertex="1" parent="5vSftLr2IqURYU0sIA8H-72">
          <mxGeometry x="180" width="60" height="40" as="geometry">
            <mxRectangle width="60" height="40" as="alternateBounds" />
          </mxGeometry>
        </mxCell>
        <mxCell id="5vSftLr2IqURYU0sIA8H-77" value="14" style="shape=partialRectangle;html=1;whiteSpace=wrap;connectable=0;overflow=hidden;fillColor=#6a00ff;top=0;left=0;bottom=0;right=0;pointerEvents=1;fontColor=#000000;strokeColor=#3700CC;fontSize=16;fontStyle=1" vertex="1" parent="5vSftLr2IqURYU0sIA8H-72">
          <mxGeometry x="240" width="60" height="40" as="geometry">
            <mxRectangle width="60" height="40" as="alternateBounds" />
          </mxGeometry>
        </mxCell>
        <mxCell id="5vSftLr2IqURYU0sIA8H-78" value="0" style="shape=partialRectangle;html=1;whiteSpace=wrap;connectable=0;overflow=hidden;fillColor=#6a00ff;top=0;left=0;bottom=0;right=0;pointerEvents=1;fontColor=#000000;strokeColor=#3700CC;fontSize=16;fontStyle=1" vertex="1" parent="5vSftLr2IqURYU0sIA8H-72">
          <mxGeometry x="300" width="60" height="40" as="geometry">
            <mxRectangle width="60" height="40" as="alternateBounds" />
          </mxGeometry>
        </mxCell>
        <mxCell id="5vSftLr2IqURYU0sIA8H-79" value="8" style="shape=partialRectangle;html=1;whiteSpace=wrap;connectable=0;overflow=hidden;fillColor=#6a00ff;top=0;left=0;bottom=0;right=0;pointerEvents=1;fontColor=#000000;strokeColor=#3700CC;fontSize=16;fontStyle=1" vertex="1" parent="5vSftLr2IqURYU0sIA8H-72">
          <mxGeometry x="360" width="60" height="40" as="geometry">
            <mxRectangle width="60" height="40" as="alternateBounds" />
          </mxGeometry>
        </mxCell>
        <mxCell id="5vSftLr2IqURYU0sIA8H-80" value="4" style="shape=partialRectangle;html=1;whiteSpace=wrap;connectable=0;overflow=hidden;fillColor=#6a00ff;top=0;left=0;bottom=0;right=0;pointerEvents=1;fontColor=#000000;strokeColor=#3700CC;fontSize=16;fontStyle=1" vertex="1" parent="5vSftLr2IqURYU0sIA8H-72">
          <mxGeometry x="420" width="60" height="40" as="geometry">
            <mxRectangle width="60" height="40" as="alternateBounds" />
          </mxGeometry>
        </mxCell>
        <mxCell id="5vSftLr2IqURYU0sIA8H-81" value="12" style="shape=partialRectangle;html=1;whiteSpace=wrap;connectable=0;overflow=hidden;fillColor=#6a00ff;top=0;left=0;bottom=0;right=0;pointerEvents=1;fontColor=#000000;strokeColor=#3700CC;fontSize=16;fontStyle=1" vertex="1" parent="5vSftLr2IqURYU0sIA8H-72">
          <mxGeometry x="480" width="60" height="40" as="geometry">
            <mxRectangle width="60" height="40" as="alternateBounds" />
          </mxGeometry>
        </mxCell>
        <mxCell id="5vSftLr2IqURYU0sIA8H-82" value="" style="shape=tableRow;horizontal=0;startSize=0;swimlaneHead=0;swimlaneBody=0;top=0;left=0;bottom=0;right=0;collapsible=0;dropTarget=0;fillColor=none;points=[[0,0.5],[1,0.5]];portConstraint=eastwest;" vertex="1" parent="5vSftLr2IqURYU0sIA8H-1">
          <mxGeometry y="320" width="540" height="40" as="geometry" />
        </mxCell>
        <mxCell id="5vSftLr2IqURYU0sIA8H-83" value="7" style="shape=partialRectangle;html=1;whiteSpace=wrap;connectable=0;overflow=hidden;top=0;left=0;bottom=0;right=0;pointerEvents=1;fontStyle=0;fontSize=13;" vertex="1" parent="5vSftLr2IqURYU0sIA8H-82">
          <mxGeometry width="60" height="40" as="geometry">
            <mxRectangle width="60" height="40" as="alternateBounds" />
          </mxGeometry>
        </mxCell>
        <mxCell id="5vSftLr2IqURYU0sIA8H-84" value="6" style="shape=partialRectangle;html=1;whiteSpace=wrap;connectable=0;overflow=hidden;fillColor=none;top=0;left=0;bottom=0;right=0;pointerEvents=1;fontSize=16;fontStyle=1;fontColor=#000000;" vertex="1" parent="5vSftLr2IqURYU0sIA8H-82">
          <mxGeometry x="60" width="60" height="40" as="geometry">
            <mxRectangle width="60" height="40" as="alternateBounds" />
          </mxGeometry>
        </mxCell>
        <mxCell id="5vSftLr2IqURYU0sIA8H-85" value="14" style="shape=partialRectangle;html=1;whiteSpace=wrap;connectable=0;overflow=hidden;fillColor=#d80073;top=0;left=0;bottom=0;right=0;pointerEvents=1;fontColor=#000000;strokeColor=#A50040;fontSize=16;fontStyle=1" vertex="1" parent="5vSftLr2IqURYU0sIA8H-82">
          <mxGeometry x="120" width="60" height="40" as="geometry">
            <mxRectangle width="60" height="40" as="alternateBounds" />
          </mxGeometry>
        </mxCell>
        <mxCell id="5vSftLr2IqURYU0sIA8H-86" value="0" style="shape=partialRectangle;html=1;whiteSpace=wrap;connectable=0;overflow=hidden;fillColor=none;top=0;left=0;bottom=0;right=0;pointerEvents=1;fontSize=16;fontStyle=1;fontColor=#000000;" vertex="1" parent="5vSftLr2IqURYU0sIA8H-82">
          <mxGeometry x="180" width="60" height="40" as="geometry">
            <mxRectangle width="60" height="40" as="alternateBounds" />
          </mxGeometry>
        </mxCell>
        <mxCell id="5vSftLr2IqURYU0sIA8H-87" value="8" style="shape=partialRectangle;html=1;whiteSpace=wrap;connectable=0;overflow=hidden;fillColor=#fa6800;top=0;left=0;bottom=0;right=0;pointerEvents=1;fontColor=#000000;strokeColor=#C73500;fontSize=16;fontStyle=1" vertex="1" parent="5vSftLr2IqURYU0sIA8H-82">
          <mxGeometry x="240" width="60" height="40" as="geometry">
            <mxRectangle width="60" height="40" as="alternateBounds" />
          </mxGeometry>
        </mxCell>
        <mxCell id="5vSftLr2IqURYU0sIA8H-88" value="4" style="shape=partialRectangle;html=1;whiteSpace=wrap;connectable=0;overflow=hidden;fillColor=none;top=0;left=0;bottom=0;right=0;pointerEvents=1;fontSize=16;fontStyle=1;fontColor=#000000;" vertex="1" parent="5vSftLr2IqURYU0sIA8H-82">
          <mxGeometry x="300" width="60" height="40" as="geometry">
            <mxRectangle width="60" height="40" as="alternateBounds" />
          </mxGeometry>
        </mxCell>
        <mxCell id="5vSftLr2IqURYU0sIA8H-89" value="12" style="shape=partialRectangle;html=1;whiteSpace=wrap;connectable=0;overflow=hidden;fillColor=#e3c800;top=0;left=0;bottom=0;right=0;pointerEvents=1;fontColor=#000000;strokeColor=#B09500;fontSize=16;fontStyle=1" vertex="1" parent="5vSftLr2IqURYU0sIA8H-82">
          <mxGeometry x="360" width="60" height="40" as="geometry">
            <mxRectangle width="60" height="40" as="alternateBounds" />
          </mxGeometry>
        </mxCell>
        <mxCell id="5vSftLr2IqURYU0sIA8H-90" value="2" style="shape=partialRectangle;html=1;whiteSpace=wrap;connectable=0;overflow=hidden;fillColor=none;top=0;left=0;bottom=0;right=0;pointerEvents=1;fontSize=16;fontStyle=1;fontColor=#000000;" vertex="1" parent="5vSftLr2IqURYU0sIA8H-82">
          <mxGeometry x="420" width="60" height="40" as="geometry">
            <mxRectangle width="60" height="40" as="alternateBounds" />
          </mxGeometry>
        </mxCell>
        <mxCell id="5vSftLr2IqURYU0sIA8H-91" value="10" style="shape=partialRectangle;html=1;whiteSpace=wrap;connectable=0;overflow=hidden;fillColor=#60a917;top=0;left=0;bottom=0;right=0;pointerEvents=1;fontColor=#000000;strokeColor=#2D7600;fontSize=16;fontStyle=1" vertex="1" parent="5vSftLr2IqURYU0sIA8H-82">
          <mxGeometry x="480" width="60" height="40" as="geometry">
            <mxRectangle width="60" height="40" as="alternateBounds" />
          </mxGeometry>
        </mxCell>
        <mxCell id="5vSftLr2IqURYU0sIA8H-92" value="&lt;b&gt;input&lt;/b&gt;" style="text;html=1;strokeColor=none;fillColor=none;align=center;verticalAlign=middle;whiteSpace=wrap;rounded=0;fontSize=17;" vertex="1" parent="1">
          <mxGeometry x="545" y="180" width="60" height="30" as="geometry" />
        </mxCell>
        <mxCell id="5vSftLr2IqURYU0sIA8H-93" value="&lt;b&gt;FSM state&lt;/b&gt;" style="text;html=1;strokeColor=none;fillColor=none;align=center;verticalAlign=middle;whiteSpace=wrap;rounded=0;fontSize=17;" vertex="1" parent="1">
          <mxGeometry x="240" y="385" width="60" height="30" as="geometry" />
        </mxCell>
      </root>
    </mxGraphModel>
  </diagram>
  <diagram name="diagrama de trellis" id="AC39fbL4XTqT76XU7nsN">
    <mxGraphModel dx="4148" dy="2394" grid="1" gridSize="10" guides="1" tooltips="1" connect="1" arrows="1" fold="1" page="1" pageScale="1" pageWidth="1100" pageHeight="850" math="1" shadow="0">
      <root>
        <mxCell id="0" />
        <mxCell id="1" parent="0" />
        <mxCell id="m-hkB6mdQgov-lHHb5_J-1" value="0" style="text;html=1;strokeColor=#6c8ebf;fillColor=#dae8fc;align=center;verticalAlign=middle;whiteSpace=wrap;rounded=0;fontStyle=1;strokeWidth=3;fontSize=19;" vertex="1" parent="1">
          <mxGeometry x="360" y="378.75" width="30" height="40" as="geometry" />
        </mxCell>
        <mxCell id="m-hkB6mdQgov-lHHb5_J-2" value="1" style="text;html=1;strokeColor=#A50040;fillColor=#d80073;align=center;verticalAlign=middle;whiteSpace=wrap;rounded=0;fontStyle=1;fontColor=#ffffff;strokeWidth=3;fontSize=19;" vertex="1" parent="1">
          <mxGeometry x="360" y="579.75" width="30" height="40" as="geometry" />
        </mxCell>
        <mxCell id="m-hkB6mdQgov-lHHb5_J-3" value="2" style="text;html=1;strokeColor=#3700CC;fillColor=#6a00ff;align=center;verticalAlign=middle;whiteSpace=wrap;rounded=0;fontStyle=1;fontColor=#ffffff;strokeWidth=3;fontSize=19;" vertex="1" parent="1">
          <mxGeometry x="360" y="781.75" width="30" height="40" as="geometry" />
        </mxCell>
        <mxCell id="m-hkB6mdQgov-lHHb5_J-4" value="3" style="text;html=1;strokeColor=#005700;fillColor=#008a00;align=center;verticalAlign=middle;whiteSpace=wrap;rounded=0;fontStyle=1;fontColor=#ffffff;strokeWidth=3;fontSize=19;" vertex="1" parent="1">
          <mxGeometry x="360" y="978.75" width="30" height="40" as="geometry" />
        </mxCell>
        <mxCell id="m-hkB6mdQgov-lHHb5_J-5" value="" style="ellipse;whiteSpace=wrap;html=1;aspect=fixed;fillColor=#dae8fc;strokeColor=#6c8ebf;strokeWidth=3;" vertex="1" parent="1">
          <mxGeometry x="871" y="390" width="17.5" height="17.5" as="geometry" />
        </mxCell>
        <mxCell id="m-hkB6mdQgov-lHHb5_J-6" value="" style="ellipse;whiteSpace=wrap;html=1;aspect=fixed;fillColor=#d80073;strokeColor=#A50040;fontColor=#ffffff;strokeWidth=3;" vertex="1" parent="1">
          <mxGeometry x="871" y="591" width="17.5" height="17.5" as="geometry" />
        </mxCell>
        <mxCell id="m-hkB6mdQgov-lHHb5_J-7" value="" style="ellipse;whiteSpace=wrap;html=1;aspect=fixed;fillColor=#6a00ff;strokeColor=#3700CC;fontColor=#ffffff;strokeWidth=3;" vertex="1" parent="1">
          <mxGeometry x="871" y="793" width="17.5" height="17.5" as="geometry" />
        </mxCell>
        <mxCell id="m-hkB6mdQgov-lHHb5_J-8" value="" style="ellipse;whiteSpace=wrap;html=1;aspect=fixed;fillColor=#008a00;strokeColor=#005700;fontColor=#ffffff;strokeWidth=3;" vertex="1" parent="1">
          <mxGeometry x="871" y="990" width="17.5" height="17.5" as="geometry" />
        </mxCell>
        <mxCell id="m-hkB6mdQgov-lHHb5_J-9" value="" style="ellipse;whiteSpace=wrap;html=1;aspect=fixed;fillColor=#dae8fc;strokeColor=#6c8ebf;strokeWidth=3;" vertex="1" parent="1">
          <mxGeometry x="1787" y="390" width="17.5" height="17.5" as="geometry" />
        </mxCell>
        <mxCell id="m-hkB6mdQgov-lHHb5_J-10" value="" style="ellipse;whiteSpace=wrap;html=1;aspect=fixed;fillColor=#d80073;strokeColor=#A50040;fontColor=#ffffff;strokeWidth=3;" vertex="1" parent="1">
          <mxGeometry x="1787" y="591" width="17.5" height="17.5" as="geometry" />
        </mxCell>
        <mxCell id="m-hkB6mdQgov-lHHb5_J-11" value="" style="ellipse;whiteSpace=wrap;html=1;aspect=fixed;fillColor=#6a00ff;strokeColor=#3700CC;fontColor=#ffffff;strokeWidth=3;" vertex="1" parent="1">
          <mxGeometry x="1787" y="793" width="17.5" height="17.5" as="geometry" />
        </mxCell>
        <mxCell id="m-hkB6mdQgov-lHHb5_J-12" value="" style="ellipse;whiteSpace=wrap;html=1;aspect=fixed;fillColor=#008a00;strokeColor=#005700;fontColor=#ffffff;strokeWidth=3;" vertex="1" parent="1">
          <mxGeometry x="1787" y="990" width="17.5" height="17.5" as="geometry" />
        </mxCell>
        <mxCell id="m-hkB6mdQgov-lHHb5_J-13" value="" style="ellipse;whiteSpace=wrap;html=1;aspect=fixed;fillColor=#dae8fc;strokeColor=#6c8ebf;strokeWidth=3;" vertex="1" parent="1">
          <mxGeometry x="2307" y="390" width="17.5" height="17.5" as="geometry" />
        </mxCell>
        <mxCell id="m-hkB6mdQgov-lHHb5_J-14" value="" style="group;fontStyle=1;fontSize=27;strokeWidth=3;" vertex="1" connectable="0" parent="1">
          <mxGeometry x="580" y="1848.75" width="55" height="30" as="geometry" />
        </mxCell>
        <mxCell id="m-hkB6mdQgov-lHHb5_J-15" value="`t_0`" style="text;html=1;align=center;verticalAlign=middle;resizable=0;points=[];autosize=1;strokeColor=none;fillColor=none;fontSize=27;strokeWidth=3;" vertex="1" parent="m-hkB6mdQgov-lHHb5_J-14">
          <mxGeometry x="-15" y="-10" width="70" height="40" as="geometry" />
        </mxCell>
        <mxCell id="m-hkB6mdQgov-lHHb5_J-16" value="" style="group;fontStyle=1;fontSize=27;strokeWidth=3;" vertex="1" connectable="0" parent="1">
          <mxGeometry x="1273" y="1848.75" width="120" height="30" as="geometry" />
        </mxCell>
        <mxCell id="m-hkB6mdQgov-lHHb5_J-17" value="`t_n &amp;lt;= t_{i-1}`" style="text;html=1;align=center;verticalAlign=middle;resizable=0;points=[];autosize=1;strokeColor=none;fillColor=none;fontStyle=1;fontSize=27;strokeWidth=3;" vertex="1" parent="m-hkB6mdQgov-lHHb5_J-16">
          <mxGeometry x="-80" y="-10" width="200" height="40" as="geometry" />
        </mxCell>
        <mxCell id="m-hkB6mdQgov-lHHb5_J-18" value="" style="group;fontSize=27;strokeWidth=3;" vertex="1" connectable="0" parent="1">
          <mxGeometry x="2017" y="1848.75" width="50" height="30" as="geometry" />
        </mxCell>
        <mxCell id="m-hkB6mdQgov-lHHb5_J-19" value="`t_i`" style="text;html=1;align=center;verticalAlign=middle;resizable=0;points=[];autosize=1;strokeColor=none;fillColor=none;fontSize=27;strokeWidth=3;" vertex="1" parent="m-hkB6mdQgov-lHHb5_J-18">
          <mxGeometry x="-10" y="-10" width="60" height="40" as="geometry" />
        </mxCell>
        <mxCell id="m-hkB6mdQgov-lHHb5_J-20" value="4" style="text;html=1;strokeColor=#B09500;fillColor=#e3c800;align=center;verticalAlign=middle;whiteSpace=wrap;rounded=0;fontStyle=1;fontColor=#000000;strokeWidth=3;fontSize=19;" vertex="1" parent="1">
          <mxGeometry x="360" y="1175.75" width="30" height="40" as="geometry" />
        </mxCell>
        <mxCell id="m-hkB6mdQgov-lHHb5_J-21" value="5" style="text;html=1;strokeColor=#C73500;fillColor=#fa6800;align=center;verticalAlign=middle;whiteSpace=wrap;rounded=0;fontStyle=1;fontColor=#000000;strokeWidth=3;fontSize=19;" vertex="1" parent="1">
          <mxGeometry x="360" y="1379.75" width="30" height="40" as="geometry" />
        </mxCell>
        <mxCell id="m-hkB6mdQgov-lHHb5_J-22" value="6" style="text;html=1;strokeColor=#6D1F00;fillColor=#a0522d;align=center;verticalAlign=middle;whiteSpace=wrap;rounded=0;fontStyle=1;strokeWidth=3;fontSize=19;fontColor=#ffffff;" vertex="1" parent="1">
          <mxGeometry x="360" y="1579.75" width="30" height="40" as="geometry" />
        </mxCell>
        <mxCell id="m-hkB6mdQgov-lHHb5_J-23" value="7" style="text;html=1;strokeColor=#006EAF;fillColor=#1ba1e2;align=center;verticalAlign=middle;whiteSpace=wrap;rounded=0;fontStyle=1;fontColor=#ffffff;strokeWidth=3;fontSize=19;" vertex="1" parent="1">
          <mxGeometry x="360" y="1778.75" width="30" height="40" as="geometry" />
        </mxCell>
        <mxCell id="m-hkB6mdQgov-lHHb5_J-24" value="" style="ellipse;whiteSpace=wrap;html=1;aspect=fixed;fillColor=#e3c800;strokeColor=#B09500;fontColor=#000000;strokeWidth=3;" vertex="1" parent="1">
          <mxGeometry x="871" y="1187" width="17.5" height="17.5" as="geometry" />
        </mxCell>
        <mxCell id="m-hkB6mdQgov-lHHb5_J-25" value="" style="ellipse;whiteSpace=wrap;html=1;aspect=fixed;fillColor=#fa6800;strokeColor=#C73500;fontColor=#000000;strokeWidth=3;" vertex="1" parent="1">
          <mxGeometry x="871" y="1391" width="17.5" height="17.5" as="geometry" />
        </mxCell>
        <mxCell id="m-hkB6mdQgov-lHHb5_J-26" value="" style="ellipse;whiteSpace=wrap;html=1;aspect=fixed;fillColor=#a0522d;strokeColor=#6D1F00;strokeWidth=3;fontColor=#ffffff;" vertex="1" parent="1">
          <mxGeometry x="871" y="1591" width="17.5" height="17.5" as="geometry" />
        </mxCell>
        <mxCell id="m-hkB6mdQgov-lHHb5_J-27" value="" style="ellipse;whiteSpace=wrap;html=1;aspect=fixed;fillColor=#1ba1e2;strokeColor=#006EAF;fontColor=#ffffff;strokeWidth=3;" vertex="1" parent="1">
          <mxGeometry x="871" y="1790" width="17.5" height="17.5" as="geometry" />
        </mxCell>
        <mxCell id="m-hkB6mdQgov-lHHb5_J-28" value="" style="ellipse;whiteSpace=wrap;html=1;aspect=fixed;fillColor=#e3c800;strokeColor=#B09500;fontColor=#000000;strokeWidth=3;" vertex="1" parent="1">
          <mxGeometry x="1787" y="1187" width="17.5" height="17.5" as="geometry" />
        </mxCell>
        <mxCell id="m-hkB6mdQgov-lHHb5_J-29" value="" style="ellipse;whiteSpace=wrap;html=1;aspect=fixed;fillColor=#fa6800;strokeColor=#C73500;fontColor=#000000;strokeWidth=3;" vertex="1" parent="1">
          <mxGeometry x="1787" y="1391" width="17.5" height="17.5" as="geometry" />
        </mxCell>
        <mxCell id="m-hkB6mdQgov-lHHb5_J-30" value="" style="ellipse;whiteSpace=wrap;html=1;aspect=fixed;fillColor=#a0522d;strokeColor=#6D1F00;strokeWidth=3;fontColor=#ffffff;" vertex="1" parent="1">
          <mxGeometry x="1787" y="1591" width="17.5" height="17.5" as="geometry" />
        </mxCell>
        <mxCell id="m-hkB6mdQgov-lHHb5_J-31" value="" style="ellipse;whiteSpace=wrap;html=1;aspect=fixed;fillColor=#1ba1e2;strokeColor=#006EAF;fontColor=#ffffff;strokeWidth=3;" vertex="1" parent="1">
          <mxGeometry x="1787" y="1790" width="17.5" height="17.5" as="geometry" />
        </mxCell>
        <mxCell id="m-hkB6mdQgov-lHHb5_J-32" value="" style="endArrow=classic;html=1;rounded=1;exitX=1;exitY=0.5;exitDx=0;exitDy=0;entryX=0;entryY=0.5;entryDx=0;entryDy=0;strokeWidth=1;fillColor=#dae8fc;strokeColor=#6c8ebf;" edge="1" parent="1" source="m-hkB6mdQgov-lHHb5_J-1" target="m-hkB6mdQgov-lHHb5_J-5">
          <mxGeometry width="50" height="50" relative="1" as="geometry">
            <mxPoint x="920" y="578.75" as="sourcePoint" />
            <mxPoint x="970" y="528.75" as="targetPoint" />
          </mxGeometry>
        </mxCell>
        <mxCell id="m-hkB6mdQgov-lHHb5_J-33" value="0" style="text;html=1;strokeColor=#6c8ebf;fillColor=#dae8fc;align=center;verticalAlign=middle;whiteSpace=wrap;rounded=0;strokeWidth=3;" vertex="1" parent="1">
          <mxGeometry x="840" y="370" width="19" height="20" as="geometry" />
        </mxCell>
        <mxCell id="m-hkB6mdQgov-lHHb5_J-34" value="" style="endArrow=classic;html=1;rounded=1;exitX=1;exitY=0.5;exitDx=0;exitDy=0;entryX=0;entryY=0.5;entryDx=0;entryDy=0;strokeWidth=1;fillColor=#dae8fc;strokeColor=#6c8ebf;" edge="1" parent="1" source="m-hkB6mdQgov-lHHb5_J-1" target="m-hkB6mdQgov-lHHb5_J-6">
          <mxGeometry width="50" height="50" relative="1" as="geometry">
            <mxPoint x="730" y="408.7499999999999" as="sourcePoint" />
            <mxPoint x="880.9999999999945" y="408.7499999999999" as="targetPoint" />
          </mxGeometry>
        </mxCell>
        <mxCell id="m-hkB6mdQgov-lHHb5_J-35" value="8" style="text;html=1;strokeColor=#6c8ebf;fillColor=#dae8fc;align=center;verticalAlign=middle;whiteSpace=wrap;rounded=0;strokeWidth=3;" vertex="1" parent="1">
          <mxGeometry x="840" y="560" width="19" height="18.5" as="geometry" />
        </mxCell>
        <mxCell id="m-hkB6mdQgov-lHHb5_J-36" value="" style="endArrow=classic;html=1;rounded=1;exitX=1;exitY=0.5;exitDx=0;exitDy=0;entryX=0;entryY=0.5;entryDx=0;entryDy=0;strokeWidth=1;fillColor=#dae8fc;strokeColor=#6c8ebf;" edge="1" parent="1" source="m-hkB6mdQgov-lHHb5_J-1" target="m-hkB6mdQgov-lHHb5_J-7">
          <mxGeometry width="50" height="50" relative="1" as="geometry">
            <mxPoint x="740" y="418.7499999999999" as="sourcePoint" />
            <mxPoint x="890.9999999999945" y="418.7499999999999" as="targetPoint" />
          </mxGeometry>
        </mxCell>
        <mxCell id="m-hkB6mdQgov-lHHb5_J-37" value="4" style="text;html=1;strokeColor=#6c8ebf;fillColor=#dae8fc;align=center;verticalAlign=middle;whiteSpace=wrap;rounded=0;strokeWidth=3;" vertex="1" parent="1">
          <mxGeometry x="840" y="750" width="19" height="20" as="geometry" />
        </mxCell>
        <mxCell id="m-hkB6mdQgov-lHHb5_J-38" value="" style="endArrow=classic;html=1;rounded=1;exitX=1;exitY=0.5;exitDx=0;exitDy=0;entryX=0;entryY=0.5;entryDx=0;entryDy=0;strokeWidth=1;fillColor=#dae8fc;strokeColor=#6c8ebf;" edge="1" parent="1" source="m-hkB6mdQgov-lHHb5_J-1" target="m-hkB6mdQgov-lHHb5_J-8">
          <mxGeometry width="50" height="50" relative="1" as="geometry">
            <mxPoint x="750" y="428.7499999999999" as="sourcePoint" />
            <mxPoint x="900.9999999999945" y="428.7499999999999" as="targetPoint" />
          </mxGeometry>
        </mxCell>
        <mxCell id="m-hkB6mdQgov-lHHb5_J-39" value="12" style="text;html=1;strokeColor=#6c8ebf;fillColor=#dae8fc;align=center;verticalAlign=middle;whiteSpace=wrap;rounded=0;strokeWidth=3;" vertex="1" parent="1">
          <mxGeometry x="840" y="940" width="19" height="18.75" as="geometry" />
        </mxCell>
        <mxCell id="m-hkB6mdQgov-lHHb5_J-40" value="" style="endArrow=classic;html=1;rounded=1;exitX=1;exitY=0.5;exitDx=0;exitDy=0;entryX=0;entryY=0.5;entryDx=0;entryDy=0;strokeWidth=1;fillColor=#dae8fc;strokeColor=#6c8ebf;" edge="1" parent="1" source="m-hkB6mdQgov-lHHb5_J-1" target="m-hkB6mdQgov-lHHb5_J-24">
          <mxGeometry width="50" height="50" relative="1" as="geometry">
            <mxPoint x="760" y="438.7499999999999" as="sourcePoint" />
            <mxPoint x="910.9999999999945" y="438.7499999999999" as="targetPoint" />
          </mxGeometry>
        </mxCell>
        <mxCell id="m-hkB6mdQgov-lHHb5_J-41" value="2" style="text;html=1;strokeColor=#6c8ebf;fillColor=#dae8fc;align=center;verticalAlign=middle;whiteSpace=wrap;rounded=0;strokeWidth=3;" vertex="1" parent="1">
          <mxGeometry x="840" y="1110" width="19" height="18.75" as="geometry" />
        </mxCell>
        <mxCell id="m-hkB6mdQgov-lHHb5_J-42" value="" style="endArrow=classic;html=1;rounded=1;exitX=1;exitY=0.5;exitDx=0;exitDy=0;entryX=0;entryY=0.5;entryDx=0;entryDy=0;strokeWidth=1;fillColor=#dae8fc;strokeColor=#6c8ebf;" edge="1" parent="1" source="m-hkB6mdQgov-lHHb5_J-1" target="m-hkB6mdQgov-lHHb5_J-25">
          <mxGeometry width="50" height="50" relative="1" as="geometry">
            <mxPoint x="770" y="448.7499999999999" as="sourcePoint" />
            <mxPoint x="920.9999999999945" y="448.7499999999999" as="targetPoint" />
          </mxGeometry>
        </mxCell>
        <mxCell id="m-hkB6mdQgov-lHHb5_J-43" value="10" style="text;html=1;strokeColor=#6c8ebf;fillColor=#dae8fc;align=center;verticalAlign=middle;whiteSpace=wrap;rounded=0;strokeWidth=3;" vertex="1" parent="1">
          <mxGeometry x="840" y="1300" width="19" height="15.75" as="geometry" />
        </mxCell>
        <mxCell id="m-hkB6mdQgov-lHHb5_J-44" value="" style="endArrow=classic;html=1;rounded=1;exitX=1;exitY=0.5;exitDx=0;exitDy=0;entryX=0;entryY=0.5;entryDx=0;entryDy=0;strokeWidth=1;fillColor=#dae8fc;strokeColor=#6c8ebf;" edge="1" parent="1" source="m-hkB6mdQgov-lHHb5_J-1" target="m-hkB6mdQgov-lHHb5_J-26">
          <mxGeometry width="50" height="50" relative="1" as="geometry">
            <mxPoint x="780" y="458.7499999999999" as="sourcePoint" />
            <mxPoint x="930.9999999999945" y="458.7499999999999" as="targetPoint" />
          </mxGeometry>
        </mxCell>
        <mxCell id="m-hkB6mdQgov-lHHb5_J-45" value="6" style="text;html=1;strokeColor=#6c8ebf;fillColor=#dae8fc;align=center;verticalAlign=middle;whiteSpace=wrap;rounded=0;strokeWidth=3;" vertex="1" parent="1">
          <mxGeometry x="840" y="1490" width="19" height="20" as="geometry" />
        </mxCell>
        <mxCell id="m-hkB6mdQgov-lHHb5_J-46" value="" style="endArrow=classic;html=1;rounded=1;exitX=1;exitY=0.5;exitDx=0;exitDy=0;entryX=0;entryY=0.5;entryDx=0;entryDy=0;strokeWidth=1;fillColor=#dae8fc;strokeColor=#6c8ebf;" edge="1" parent="1" source="m-hkB6mdQgov-lHHb5_J-1" target="m-hkB6mdQgov-lHHb5_J-27">
          <mxGeometry width="50" height="50" relative="1" as="geometry">
            <mxPoint x="790" y="468.7499999999999" as="sourcePoint" />
            <mxPoint x="940.9999999999945" y="468.7499999999999" as="targetPoint" />
          </mxGeometry>
        </mxCell>
        <mxCell id="m-hkB6mdQgov-lHHb5_J-47" value="14" style="text;html=1;strokeColor=#6c8ebf;fillColor=#dae8fc;align=center;verticalAlign=middle;whiteSpace=wrap;rounded=0;strokeWidth=3;" vertex="1" parent="1">
          <mxGeometry x="840" y="1680" width="19" height="20" as="geometry" />
        </mxCell>
        <mxCell id="m-hkB6mdQgov-lHHb5_J-48" value="" style="endArrow=classic;html=1;rounded=1;exitX=1;exitY=0.5;exitDx=0;exitDy=0;entryX=0;entryY=0.5;entryDx=0;entryDy=0;strokeWidth=3;" edge="1" parent="1" source="m-hkB6mdQgov-lHHb5_J-31" target="m-hkB6mdQgov-lHHb5_J-13">
          <mxGeometry width="50" height="50" relative="1" as="geometry">
            <mxPoint x="1167" y="478.7499999999999" as="sourcePoint" />
            <mxPoint x="1317.9999999999945" y="478.7499999999999" as="targetPoint" />
          </mxGeometry>
        </mxCell>
        <mxCell id="m-hkB6mdQgov-lHHb5_J-49" value="6" style="text;html=1;strokeColor=none;fillColor=none;align=center;verticalAlign=middle;whiteSpace=wrap;rounded=0;strokeWidth=3;" vertex="1" parent="1">
          <mxGeometry x="1817" y="1728.75" width="19" height="30" as="geometry" />
        </mxCell>
        <mxCell id="m-hkB6mdQgov-lHHb5_J-50" value="" style="endArrow=classic;html=1;rounded=1;exitX=1;exitY=0.5;exitDx=0;exitDy=0;entryX=0;entryY=0.5;entryDx=0;entryDy=0;strokeWidth=3;" edge="1" parent="1" source="m-hkB6mdQgov-lHHb5_J-30" target="m-hkB6mdQgov-lHHb5_J-13">
          <mxGeometry width="50" height="50" relative="1" as="geometry">
            <mxPoint x="1177" y="488.7499999999999" as="sourcePoint" />
            <mxPoint x="1327.9999999999945" y="488.7499999999999" as="targetPoint" />
          </mxGeometry>
        </mxCell>
        <mxCell id="m-hkB6mdQgov-lHHb5_J-51" value="2" style="text;html=1;strokeColor=none;fillColor=none;align=center;verticalAlign=middle;whiteSpace=wrap;rounded=0;strokeWidth=3;" vertex="1" parent="1">
          <mxGeometry x="1817" y="1529.75" width="19" height="30" as="geometry" />
        </mxCell>
        <mxCell id="m-hkB6mdQgov-lHHb5_J-52" value="" style="endArrow=classic;html=1;rounded=1;exitX=1;exitY=0.5;exitDx=0;exitDy=0;entryX=0;entryY=0.5;entryDx=0;entryDy=0;strokeWidth=3;" edge="1" parent="1" source="m-hkB6mdQgov-lHHb5_J-29" target="m-hkB6mdQgov-lHHb5_J-13">
          <mxGeometry width="50" height="50" relative="1" as="geometry">
            <mxPoint x="1937" y="533.3699999999999" as="sourcePoint" />
            <mxPoint x="2087.9999999999945" y="533.3699999999999" as="targetPoint" />
          </mxGeometry>
        </mxCell>
        <mxCell id="m-hkB6mdQgov-lHHb5_J-53" value="7" style="text;html=1;strokeColor=none;fillColor=none;align=center;verticalAlign=middle;whiteSpace=wrap;rounded=0;strokeWidth=3;" vertex="1" parent="1">
          <mxGeometry x="1817" y="1255.75" width="19" height="30" as="geometry" />
        </mxCell>
        <mxCell id="m-hkB6mdQgov-lHHb5_J-54" value="" style="endArrow=classic;html=1;rounded=1;exitX=1;exitY=0.5;exitDx=0;exitDy=0;entryX=0;entryY=0.5;entryDx=0;entryDy=0;strokeWidth=3;" edge="1" parent="1" source="m-hkB6mdQgov-lHHb5_J-28" target="m-hkB6mdQgov-lHHb5_J-13">
          <mxGeometry width="50" height="50" relative="1" as="geometry">
            <mxPoint x="1827" y="509.2299999999999" as="sourcePoint" />
            <mxPoint x="1977.9999999999945" y="509.2299999999999" as="targetPoint" />
          </mxGeometry>
        </mxCell>
        <mxCell id="m-hkB6mdQgov-lHHb5_J-55" value="3" style="text;html=1;strokeColor=none;fillColor=none;align=center;verticalAlign=middle;whiteSpace=wrap;rounded=0;strokeWidth=3;" vertex="1" parent="1">
          <mxGeometry x="1817" y="1068.75" width="19" height="30" as="geometry" />
        </mxCell>
        <mxCell id="m-hkB6mdQgov-lHHb5_J-56" value="" style="endArrow=classic;html=1;rounded=1;exitX=1;exitY=0.5;exitDx=0;exitDy=0;entryX=0;entryY=0.5;entryDx=0;entryDy=0;strokeWidth=3;" edge="1" parent="1" source="m-hkB6mdQgov-lHHb5_J-12" target="m-hkB6mdQgov-lHHb5_J-13">
          <mxGeometry width="50" height="50" relative="1" as="geometry">
            <mxPoint x="1907" y="518.7499999999999" as="sourcePoint" />
            <mxPoint x="2057.9999999999945" y="518.7499999999999" as="targetPoint" />
          </mxGeometry>
        </mxCell>
        <mxCell id="m-hkB6mdQgov-lHHb5_J-57" value="5" style="text;html=1;strokeColor=none;fillColor=none;align=center;verticalAlign=middle;whiteSpace=wrap;rounded=0;strokeWidth=3;" vertex="1" parent="1">
          <mxGeometry x="1817" y="958.75" width="19" height="30" as="geometry" />
        </mxCell>
        <mxCell id="m-hkB6mdQgov-lHHb5_J-58" value="" style="endArrow=classic;html=1;rounded=1;exitX=1;exitY=0.5;exitDx=0;exitDy=0;entryX=0;entryY=0.5;entryDx=0;entryDy=0;strokeWidth=3;" edge="1" parent="1" source="m-hkB6mdQgov-lHHb5_J-11" target="m-hkB6mdQgov-lHHb5_J-13">
          <mxGeometry width="50" height="50" relative="1" as="geometry">
            <mxPoint x="1917" y="497.9799999999999" as="sourcePoint" />
            <mxPoint x="2067.9999999999945" y="497.9799999999999" as="targetPoint" />
          </mxGeometry>
        </mxCell>
        <mxCell id="m-hkB6mdQgov-lHHb5_J-59" value="1" style="text;html=1;strokeColor=none;fillColor=none;align=center;verticalAlign=middle;whiteSpace=wrap;rounded=0;strokeWidth=3;" vertex="1" parent="1">
          <mxGeometry x="1817" y="761.75" width="19" height="30" as="geometry" />
        </mxCell>
        <mxCell id="m-hkB6mdQgov-lHHb5_J-60" value="" style="endArrow=classic;html=1;rounded=1;exitX=1;exitY=0.5;exitDx=0;exitDy=0;entryX=0;entryY=0.5;entryDx=0;entryDy=0;strokeWidth=3;" edge="1" parent="1" source="m-hkB6mdQgov-lHHb5_J-10" target="m-hkB6mdQgov-lHHb5_J-13">
          <mxGeometry width="50" height="50" relative="1" as="geometry">
            <mxPoint x="1917" y="397.9799999999999" as="sourcePoint" />
            <mxPoint x="2067.9999999999945" y="397.9799999999999" as="targetPoint" />
          </mxGeometry>
        </mxCell>
        <mxCell id="m-hkB6mdQgov-lHHb5_J-61" value="4" style="text;html=1;strokeColor=none;fillColor=none;align=center;verticalAlign=middle;whiteSpace=wrap;rounded=0;strokeWidth=3;" vertex="1" parent="1">
          <mxGeometry x="1817" y="569.75" width="19" height="30" as="geometry" />
        </mxCell>
        <mxCell id="m-hkB6mdQgov-lHHb5_J-62" value="" style="endArrow=classic;html=1;rounded=1;exitX=1;exitY=0.5;exitDx=0;exitDy=0;entryX=0;entryY=0.5;entryDx=0;entryDy=0;strokeWidth=3;" edge="1" parent="1" source="m-hkB6mdQgov-lHHb5_J-9" target="m-hkB6mdQgov-lHHb5_J-13">
          <mxGeometry width="50" height="50" relative="1" as="geometry">
            <mxPoint x="1927" y="318.7499999999999" as="sourcePoint" />
            <mxPoint x="2077.9999999999945" y="318.7499999999999" as="targetPoint" />
          </mxGeometry>
        </mxCell>
        <mxCell id="m-hkB6mdQgov-lHHb5_J-63" value="0" style="text;html=1;strokeColor=none;fillColor=none;align=center;verticalAlign=middle;whiteSpace=wrap;rounded=0;strokeWidth=3;" vertex="1" parent="1">
          <mxGeometry x="1817" y="368.75" width="19" height="30" as="geometry" />
        </mxCell>
        <mxCell id="m-hkB6mdQgov-lHHb5_J-64" value="" style="endArrow=classic;html=1;rounded=1;exitX=1;exitY=0.5;exitDx=0;exitDy=0;entryX=0;entryY=0.5;entryDx=0;entryDy=0;fillColor=#dae8fc;strokeColor=#6c8ebf;strokeWidth=1;" edge="1" parent="1" source="m-hkB6mdQgov-lHHb5_J-5" target="m-hkB6mdQgov-lHHb5_J-9">
          <mxGeometry width="50" height="50" relative="1" as="geometry">
            <mxPoint x="1173" y="408.7499999999998" as="sourcePoint" />
            <mxPoint x="1654" y="408.7499999999998" as="targetPoint" />
          </mxGeometry>
        </mxCell>
        <mxCell id="m-hkB6mdQgov-lHHb5_J-65" value="0" style="text;html=1;strokeColor=#6c8ebf;fillColor=#dae8fc;align=center;verticalAlign=middle;whiteSpace=wrap;rounded=0;strokeWidth=3;" vertex="1" parent="1">
          <mxGeometry x="1748" y="378.75" width="19" height="20" as="geometry" />
        </mxCell>
        <mxCell id="m-hkB6mdQgov-lHHb5_J-66" value="" style="endArrow=classic;html=1;rounded=1;exitX=1;exitY=0.5;exitDx=0;exitDy=0;entryX=0;entryY=0.5;entryDx=0;entryDy=0;fillColor=#dae8fc;strokeColor=#6c8ebf;strokeWidth=1;" edge="1" parent="1" source="m-hkB6mdQgov-lHHb5_J-5" target="m-hkB6mdQgov-lHHb5_J-10">
          <mxGeometry width="50" height="50" relative="1" as="geometry">
            <mxPoint x="1173" y="408.7499999999998" as="sourcePoint" />
            <mxPoint x="1654" y="528.7499999999998" as="targetPoint" />
          </mxGeometry>
        </mxCell>
        <mxCell id="m-hkB6mdQgov-lHHb5_J-67" value="8" style="text;html=1;strokeColor=#6c8ebf;fillColor=#dae8fc;align=center;verticalAlign=middle;whiteSpace=wrap;rounded=0;strokeWidth=3;" vertex="1" parent="1">
          <mxGeometry x="1748" y="572.5" width="19" height="18.5" as="geometry" />
        </mxCell>
        <mxCell id="m-hkB6mdQgov-lHHb5_J-68" value="" style="endArrow=classic;html=1;rounded=1;exitX=1;exitY=0.5;exitDx=0;exitDy=0;entryX=0;entryY=0.5;entryDx=0;entryDy=0;fillColor=#dae8fc;strokeColor=#6c8ebf;strokeWidth=1;" edge="1" parent="1" source="m-hkB6mdQgov-lHHb5_J-5" target="m-hkB6mdQgov-lHHb5_J-11">
          <mxGeometry width="50" height="50" relative="1" as="geometry">
            <mxPoint x="1173" y="408.7499999999998" as="sourcePoint" />
            <mxPoint x="1654" y="648.7500000000002" as="targetPoint" />
          </mxGeometry>
        </mxCell>
        <mxCell id="m-hkB6mdQgov-lHHb5_J-69" value="4" style="text;html=1;strokeColor=#6c8ebf;fillColor=#dae8fc;align=center;verticalAlign=middle;whiteSpace=wrap;rounded=0;strokeWidth=3;" vertex="1" parent="1">
          <mxGeometry x="1748" y="766.75" width="19" height="20" as="geometry" />
        </mxCell>
        <mxCell id="m-hkB6mdQgov-lHHb5_J-70" value="" style="endArrow=classic;html=1;rounded=1;exitX=1;exitY=0.5;exitDx=0;exitDy=0;entryX=0;entryY=0.5;entryDx=0;entryDy=0;fillColor=#dae8fc;strokeColor=#6c8ebf;strokeWidth=1;" edge="1" parent="1" source="m-hkB6mdQgov-lHHb5_J-5" target="m-hkB6mdQgov-lHHb5_J-12">
          <mxGeometry width="50" height="50" relative="1" as="geometry">
            <mxPoint x="1173" y="408.7499999999998" as="sourcePoint" />
            <mxPoint x="1654" y="768.7500000000002" as="targetPoint" />
          </mxGeometry>
        </mxCell>
        <mxCell id="m-hkB6mdQgov-lHHb5_J-71" value="12" style="text;html=1;strokeColor=#6c8ebf;fillColor=#dae8fc;align=center;verticalAlign=middle;whiteSpace=wrap;rounded=0;strokeWidth=3;" vertex="1" parent="1">
          <mxGeometry x="1748" y="950.38" width="19" height="18.75" as="geometry" />
        </mxCell>
        <mxCell id="m-hkB6mdQgov-lHHb5_J-72" value="" style="endArrow=classic;html=1;rounded=1;exitX=1;exitY=0.5;exitDx=0;exitDy=0;entryX=0;entryY=0.5;entryDx=0;entryDy=0;fillColor=#dae8fc;strokeColor=#6c8ebf;strokeWidth=1;" edge="1" parent="1" source="m-hkB6mdQgov-lHHb5_J-5" target="m-hkB6mdQgov-lHHb5_J-28">
          <mxGeometry width="50" height="50" relative="1" as="geometry">
            <mxPoint x="1173" y="408.7499999999998" as="sourcePoint" />
            <mxPoint x="1654" y="888.7500000000002" as="targetPoint" />
          </mxGeometry>
        </mxCell>
        <mxCell id="m-hkB6mdQgov-lHHb5_J-73" value="2" style="text;html=1;strokeColor=#6c8ebf;fillColor=#dae8fc;align=center;verticalAlign=middle;whiteSpace=wrap;rounded=0;strokeWidth=3;" vertex="1" parent="1">
          <mxGeometry x="1748" y="1140" width="19" height="20" as="geometry" />
        </mxCell>
        <mxCell id="m-hkB6mdQgov-lHHb5_J-74" value="" style="endArrow=classic;html=1;rounded=1;exitX=1;exitY=0.5;exitDx=0;exitDy=0;entryX=0;entryY=0.5;entryDx=0;entryDy=0;fillColor=#dae8fc;strokeColor=#6c8ebf;strokeWidth=1;" edge="1" parent="1" source="m-hkB6mdQgov-lHHb5_J-5" target="m-hkB6mdQgov-lHHb5_J-29">
          <mxGeometry width="50" height="50" relative="1" as="geometry">
            <mxPoint x="1173" y="408.7499999999998" as="sourcePoint" />
            <mxPoint x="1654" y="1008.7500000000002" as="targetPoint" />
          </mxGeometry>
        </mxCell>
        <mxCell id="m-hkB6mdQgov-lHHb5_J-75" value="10" style="text;html=1;strokeColor=#6c8ebf;fillColor=#dae8fc;align=center;verticalAlign=middle;whiteSpace=wrap;rounded=0;strokeWidth=3;" vertex="1" parent="1">
          <mxGeometry x="1748" y="1330.75" width="19" height="18.75" as="geometry" />
        </mxCell>
        <mxCell id="m-hkB6mdQgov-lHHb5_J-76" value="" style="endArrow=classic;html=1;rounded=1;exitX=1;exitY=0.5;exitDx=0;exitDy=0;entryX=0;entryY=0.5;entryDx=0;entryDy=0;fillColor=#dae8fc;strokeColor=#6c8ebf;strokeWidth=1;" edge="1" parent="1" source="m-hkB6mdQgov-lHHb5_J-5" target="m-hkB6mdQgov-lHHb5_J-30">
          <mxGeometry width="50" height="50" relative="1" as="geometry">
            <mxPoint x="1173" y="408.7499999999998" as="sourcePoint" />
            <mxPoint x="1654" y="1128.75" as="targetPoint" />
          </mxGeometry>
        </mxCell>
        <mxCell id="m-hkB6mdQgov-lHHb5_J-77" value="6" style="text;html=1;strokeColor=#6c8ebf;fillColor=#dae8fc;align=center;verticalAlign=middle;whiteSpace=wrap;rounded=0;strokeWidth=3;" vertex="1" parent="1">
          <mxGeometry x="1748" y="1519.75" width="19" height="20" as="geometry" />
        </mxCell>
        <mxCell id="m-hkB6mdQgov-lHHb5_J-78" value="" style="endArrow=classic;html=1;rounded=1;exitX=1;exitY=0.5;exitDx=0;exitDy=0;entryX=0;entryY=0.5;entryDx=0;entryDy=0;fillColor=#dae8fc;strokeColor=#6c8ebf;strokeWidth=1;" edge="1" parent="1" source="m-hkB6mdQgov-lHHb5_J-5" target="m-hkB6mdQgov-lHHb5_J-31">
          <mxGeometry width="50" height="50" relative="1" as="geometry">
            <mxPoint x="1173" y="408.7499999999998" as="sourcePoint" />
            <mxPoint x="1654" y="1248.75" as="targetPoint" />
          </mxGeometry>
        </mxCell>
        <mxCell id="m-hkB6mdQgov-lHHb5_J-79" value="14" style="text;html=1;strokeColor=#6c8ebf;fillColor=#dae8fc;align=center;verticalAlign=middle;whiteSpace=wrap;rounded=0;strokeWidth=3;" vertex="1" parent="1">
          <mxGeometry x="1748" y="1708.75" width="19" height="20" as="geometry" />
        </mxCell>
        <mxCell id="m-hkB6mdQgov-lHHb5_J-80" value="" style="endArrow=classic;html=1;rounded=1;exitX=1;exitY=0.5;exitDx=0;exitDy=0;entryX=0;entryY=0.5;entryDx=0;entryDy=0;fillColor=#d80073;strokeColor=#A50040;strokeWidth=3;dashed=1;" edge="1" parent="1" source="m-hkB6mdQgov-lHHb5_J-6" target="m-hkB6mdQgov-lHHb5_J-9">
          <mxGeometry width="50" height="50" relative="1" as="geometry">
            <mxPoint x="1151.5" y="348.7499999999998" as="sourcePoint" />
            <mxPoint x="1683" y="348.7499999999998" as="targetPoint" />
          </mxGeometry>
        </mxCell>
        <mxCell id="m-hkB6mdQgov-lHHb5_J-81" value="4" style="text;html=1;strokeColor=#A50040;fillColor=#d80073;align=center;verticalAlign=middle;whiteSpace=wrap;rounded=0;fontStyle=1;strokeWidth=3;fontColor=#ffffff;" vertex="1" parent="1">
          <mxGeometry x="1690" y="403.75" width="19" height="21.25" as="geometry" />
        </mxCell>
        <mxCell id="m-hkB6mdQgov-lHHb5_J-82" value="" style="endArrow=classic;html=1;rounded=1;exitX=1;exitY=0.5;exitDx=0;exitDy=0;entryX=0;entryY=0.5;entryDx=0;entryDy=0;fillColor=#d80073;strokeColor=#A50040;strokeWidth=3;dashed=1;" edge="1" parent="1" source="m-hkB6mdQgov-lHHb5_J-6" target="m-hkB6mdQgov-lHHb5_J-10">
          <mxGeometry width="50" height="50" relative="1" as="geometry">
            <mxPoint x="1151.5000000000373" y="609.7499999999999" as="sourcePoint" />
            <mxPoint x="1683.0000000000905" y="489.7499999999999" as="targetPoint" />
          </mxGeometry>
        </mxCell>
        <mxCell id="m-hkB6mdQgov-lHHb5_J-83" value="12" style="text;html=1;strokeColor=#A50040;fillColor=#d80073;align=center;verticalAlign=middle;whiteSpace=wrap;rounded=0;fontStyle=1;strokeWidth=3;fontColor=#ffffff;" vertex="1" parent="1">
          <mxGeometry x="1690" y="587" width="19" height="21.5" as="geometry" />
        </mxCell>
        <mxCell id="m-hkB6mdQgov-lHHb5_J-84" value="" style="endArrow=classic;html=1;rounded=1;exitX=1;exitY=0.5;exitDx=0;exitDy=0;entryX=0;entryY=0.5;entryDx=0;entryDy=0;fillColor=#d80073;strokeColor=#A50040;strokeWidth=3;dashed=1;" edge="1" parent="1" source="m-hkB6mdQgov-lHHb5_J-6" target="m-hkB6mdQgov-lHHb5_J-11">
          <mxGeometry width="50" height="50" relative="1" as="geometry">
            <mxPoint x="1151.5000000000373" y="609.7499999999999" as="sourcePoint" />
            <mxPoint x="1683.0000000000905" y="489.7499999999999" as="targetPoint" />
          </mxGeometry>
        </mxCell>
        <mxCell id="m-hkB6mdQgov-lHHb5_J-85" value="2" style="text;html=1;strokeColor=#A50040;fillColor=#d80073;align=center;verticalAlign=middle;whiteSpace=wrap;rounded=0;fontStyle=1;strokeWidth=3;fontColor=#ffffff;" vertex="1" parent="1">
          <mxGeometry x="1690" y="770" width="19" height="21.75" as="geometry" />
        </mxCell>
        <mxCell id="m-hkB6mdQgov-lHHb5_J-86" value="" style="endArrow=classic;html=1;rounded=1;exitX=1;exitY=0.5;exitDx=0;exitDy=0;entryX=0;entryY=0.5;entryDx=0;entryDy=0;fillColor=#d80073;strokeColor=#A50040;strokeWidth=3;dashed=1;" edge="1" parent="1" source="m-hkB6mdQgov-lHHb5_J-6" target="m-hkB6mdQgov-lHHb5_J-12">
          <mxGeometry width="50" height="50" relative="1" as="geometry">
            <mxPoint x="1161.5000000000373" y="619.7499999999999" as="sourcePoint" />
            <mxPoint x="1693.0000000000905" y="499.7499999999999" as="targetPoint" />
          </mxGeometry>
        </mxCell>
        <mxCell id="m-hkB6mdQgov-lHHb5_J-87" value="10" style="text;html=1;strokeColor=#A50040;fillColor=#d80073;align=center;verticalAlign=middle;whiteSpace=wrap;rounded=0;fontStyle=1;strokeWidth=3;fontColor=#ffffff;" vertex="1" parent="1">
          <mxGeometry x="1690" y="944.75" width="19" height="21.75" as="geometry" />
        </mxCell>
        <mxCell id="m-hkB6mdQgov-lHHb5_J-88" value="" style="endArrow=classic;html=1;rounded=1;exitX=1;exitY=0.5;exitDx=0;exitDy=0;entryX=0;entryY=0.5;entryDx=0;entryDy=0;fillColor=#d80073;strokeColor=#A50040;strokeWidth=3;dashed=1;" edge="1" parent="1" source="m-hkB6mdQgov-lHHb5_J-6" target="m-hkB6mdQgov-lHHb5_J-28">
          <mxGeometry width="50" height="50" relative="1" as="geometry">
            <mxPoint x="1171.5000000000373" y="629.7499999999999" as="sourcePoint" />
            <mxPoint x="1703.0000000000905" y="509.7499999999999" as="targetPoint" />
          </mxGeometry>
        </mxCell>
        <mxCell id="m-hkB6mdQgov-lHHb5_J-89" value="6" style="text;html=1;strokeColor=#A50040;fillColor=#d80073;align=center;verticalAlign=middle;whiteSpace=wrap;rounded=0;fontStyle=1;strokeWidth=3;fontColor=#ffffff;" vertex="1" parent="1">
          <mxGeometry x="1690" y="1128.75" width="19" height="18.75" as="geometry" />
        </mxCell>
        <mxCell id="m-hkB6mdQgov-lHHb5_J-90" value="" style="endArrow=classic;html=1;rounded=1;exitX=1;exitY=0.5;exitDx=0;exitDy=0;entryX=0;entryY=0.5;entryDx=0;entryDy=0;fillColor=#d80073;strokeColor=#A50040;strokeWidth=3;dashed=1;" edge="1" parent="1" source="m-hkB6mdQgov-lHHb5_J-6" target="m-hkB6mdQgov-lHHb5_J-29">
          <mxGeometry width="50" height="50" relative="1" as="geometry">
            <mxPoint x="1181.5000000000373" y="639.7499999999999" as="sourcePoint" />
            <mxPoint x="1713.0000000000905" y="519.7499999999999" as="targetPoint" />
          </mxGeometry>
        </mxCell>
        <mxCell id="m-hkB6mdQgov-lHHb5_J-91" value="14" style="text;html=1;strokeColor=#A50040;fillColor=#d80073;align=center;verticalAlign=middle;whiteSpace=wrap;rounded=0;fontStyle=1;strokeWidth=3;fontColor=#ffffff;" vertex="1" parent="1">
          <mxGeometry x="1690" y="1310" width="19" height="20.75" as="geometry" />
        </mxCell>
        <mxCell id="m-hkB6mdQgov-lHHb5_J-92" value="" style="endArrow=classic;html=1;rounded=1;exitX=1;exitY=0.5;exitDx=0;exitDy=0;entryX=0;entryY=0.5;entryDx=0;entryDy=0;fillColor=#d80073;strokeColor=#A50040;strokeWidth=3;dashed=1;" edge="1" parent="1" source="m-hkB6mdQgov-lHHb5_J-6" target="m-hkB6mdQgov-lHHb5_J-30">
          <mxGeometry width="50" height="50" relative="1" as="geometry">
            <mxPoint x="1191.5000000000373" y="649.7499999999999" as="sourcePoint" />
            <mxPoint x="1723.0000000000905" y="529.7499999999999" as="targetPoint" />
          </mxGeometry>
        </mxCell>
        <mxCell id="m-hkB6mdQgov-lHHb5_J-93" value="0" style="text;html=1;strokeColor=#A50040;fillColor=#d80073;align=center;verticalAlign=middle;whiteSpace=wrap;rounded=0;fontStyle=1;strokeWidth=3;fontColor=#ffffff;" vertex="1" parent="1">
          <mxGeometry x="1690" y="1490" width="19" height="19.75" as="geometry" />
        </mxCell>
        <mxCell id="m-hkB6mdQgov-lHHb5_J-94" value="" style="endArrow=classic;html=1;rounded=1;exitX=1;exitY=0.5;exitDx=0;exitDy=0;entryX=0;entryY=0.5;entryDx=0;entryDy=0;fillColor=#d80073;strokeColor=#A50040;strokeWidth=3;dashed=1;" edge="1" parent="1" source="m-hkB6mdQgov-lHHb5_J-6" target="m-hkB6mdQgov-lHHb5_J-31">
          <mxGeometry width="50" height="50" relative="1" as="geometry">
            <mxPoint x="1201.5000000000373" y="659.7499999999999" as="sourcePoint" />
            <mxPoint x="1733.0000000000905" y="539.7499999999999" as="targetPoint" />
          </mxGeometry>
        </mxCell>
        <mxCell id="m-hkB6mdQgov-lHHb5_J-95" value="8" style="text;html=1;strokeColor=#A50040;fillColor=#d80073;align=center;verticalAlign=middle;whiteSpace=wrap;rounded=0;fontStyle=1;strokeWidth=3;fontColor=#ffffff;" vertex="1" parent="1">
          <mxGeometry x="1690" y="1660.25" width="19" height="19.75" as="geometry" />
        </mxCell>
        <mxCell id="m-hkB6mdQgov-lHHb5_J-96" value="" style="endArrow=classic;html=1;rounded=1;exitX=1;exitY=0.5;exitDx=0;exitDy=0;entryX=0;entryY=0.5;entryDx=0;entryDy=0;fillColor=#6a00ff;strokeColor=#3700CC;strokeWidth=1;" edge="1" parent="1" source="m-hkB6mdQgov-lHHb5_J-7" target="m-hkB6mdQgov-lHHb5_J-9">
          <mxGeometry width="50" height="50" relative="1" as="geometry">
            <mxPoint x="1211.5000000000373" y="588.7499999999999" as="sourcePoint" />
            <mxPoint x="1743.0000000000905" y="468.7499999999999" as="targetPoint" />
          </mxGeometry>
        </mxCell>
        <mxCell id="m-hkB6mdQgov-lHHb5_J-97" value="1" style="text;html=1;align=center;verticalAlign=middle;whiteSpace=wrap;rounded=0;strokeWidth=3;" vertex="1" parent="1">
          <mxGeometry x="1637" y="557.75" width="19" height="30" as="geometry" />
        </mxCell>
        <mxCell id="m-hkB6mdQgov-lHHb5_J-98" value="" style="endArrow=classic;html=1;rounded=1;exitX=1;exitY=0.5;exitDx=0;exitDy=0;entryX=0;entryY=0.5;entryDx=0;entryDy=0;fillColor=#6a00ff;strokeColor=#3700CC;strokeWidth=1;" edge="1" parent="1" source="m-hkB6mdQgov-lHHb5_J-7" target="m-hkB6mdQgov-lHHb5_J-10">
          <mxGeometry width="50" height="50" relative="1" as="geometry">
            <mxPoint x="1151.5000000000373" y="729.75" as="sourcePoint" />
            <mxPoint x="1683.0000000000905" y="489.7499999999999" as="targetPoint" />
          </mxGeometry>
        </mxCell>
        <mxCell id="m-hkB6mdQgov-lHHb5_J-99" value="9" style="text;html=1;align=center;verticalAlign=middle;whiteSpace=wrap;rounded=0;strokeWidth=3;" vertex="1" parent="1">
          <mxGeometry x="1637" y="608.5" width="19" height="30" as="geometry" />
        </mxCell>
        <mxCell id="m-hkB6mdQgov-lHHb5_J-100" value="" style="endArrow=classic;html=1;rounded=1;exitX=1;exitY=0.5;exitDx=0;exitDy=0;entryX=0;entryY=0.5;entryDx=0;entryDy=0;fillColor=#6a00ff;strokeColor=#3700CC;strokeWidth=1;" edge="1" parent="1" source="m-hkB6mdQgov-lHHb5_J-7" target="m-hkB6mdQgov-lHHb5_J-11">
          <mxGeometry width="50" height="50" relative="1" as="geometry">
            <mxPoint x="1161.5000000000373" y="821.75" as="sourcePoint" />
            <mxPoint x="1693.0000000000905" y="581.7499999999999" as="targetPoint" />
          </mxGeometry>
        </mxCell>
        <mxCell id="m-hkB6mdQgov-lHHb5_J-101" value="5" style="text;html=1;align=center;verticalAlign=middle;whiteSpace=wrap;rounded=0;strokeWidth=3;" vertex="1" parent="1">
          <mxGeometry x="1637" y="780.5" width="19" height="30" as="geometry" />
        </mxCell>
        <mxCell id="m-hkB6mdQgov-lHHb5_J-102" value="" style="endArrow=classic;html=1;rounded=1;exitX=1;exitY=0.5;exitDx=0;exitDy=0;entryX=0;entryY=0.5;entryDx=0;entryDy=0;fillColor=#6a00ff;strokeColor=#3700CC;strokeWidth=1;" edge="1" parent="1" source="m-hkB6mdQgov-lHHb5_J-7" target="m-hkB6mdQgov-lHHb5_J-12">
          <mxGeometry width="50" height="50" relative="1" as="geometry">
            <mxPoint x="1171.5000000000373" y="831.75" as="sourcePoint" />
            <mxPoint x="1703.0000000000905" y="591.7499999999999" as="targetPoint" />
          </mxGeometry>
        </mxCell>
        <mxCell id="m-hkB6mdQgov-lHHb5_J-103" value="13" style="text;html=1;align=center;verticalAlign=middle;whiteSpace=wrap;rounded=0;strokeWidth=3;" vertex="1" parent="1">
          <mxGeometry x="1637" y="944.75" width="19" height="30" as="geometry" />
        </mxCell>
        <mxCell id="m-hkB6mdQgov-lHHb5_J-104" value="" style="endArrow=classic;html=1;rounded=1;exitX=1;exitY=0.5;exitDx=0;exitDy=0;entryX=0;entryY=0.5;entryDx=0;entryDy=0;fillColor=#6a00ff;strokeColor=#3700CC;strokeWidth=1;" edge="1" parent="1" source="m-hkB6mdQgov-lHHb5_J-7" target="m-hkB6mdQgov-lHHb5_J-28">
          <mxGeometry width="50" height="50" relative="1" as="geometry">
            <mxPoint x="1181.5000000000373" y="841.75" as="sourcePoint" />
            <mxPoint x="1713.0000000000905" y="601.7499999999999" as="targetPoint" />
          </mxGeometry>
        </mxCell>
        <mxCell id="m-hkB6mdQgov-lHHb5_J-105" value="3" style="text;html=1;align=center;verticalAlign=middle;whiteSpace=wrap;rounded=0;strokeWidth=3;" vertex="1" parent="1">
          <mxGeometry x="1637" y="1030.75" width="19" height="30" as="geometry" />
        </mxCell>
        <mxCell id="m-hkB6mdQgov-lHHb5_J-106" value="" style="endArrow=classic;html=1;rounded=1;exitX=1;exitY=0.5;exitDx=0;exitDy=0;entryX=0;entryY=0.5;entryDx=0;entryDy=0;fillColor=#6a00ff;strokeColor=#3700CC;strokeWidth=1;" edge="1" parent="1" source="m-hkB6mdQgov-lHHb5_J-7" target="m-hkB6mdQgov-lHHb5_J-29">
          <mxGeometry width="50" height="50" relative="1" as="geometry">
            <mxPoint x="1191.5000000000373" y="851.75" as="sourcePoint" />
            <mxPoint x="1723.0000000000905" y="611.7499999999999" as="targetPoint" />
          </mxGeometry>
        </mxCell>
        <mxCell id="m-hkB6mdQgov-lHHb5_J-107" value="11" style="text;html=1;align=center;verticalAlign=middle;whiteSpace=wrap;rounded=0;strokeWidth=3;" vertex="1" parent="1">
          <mxGeometry x="1637" y="1195.75" width="19" height="30" as="geometry" />
        </mxCell>
        <mxCell id="m-hkB6mdQgov-lHHb5_J-108" value="" style="endArrow=classic;html=1;rounded=1;exitX=1;exitY=0.5;exitDx=0;exitDy=0;entryX=0;entryY=0.5;entryDx=0;entryDy=0;fillColor=#6a00ff;strokeColor=#3700CC;strokeWidth=1;" edge="1" parent="1" source="m-hkB6mdQgov-lHHb5_J-7" target="m-hkB6mdQgov-lHHb5_J-30">
          <mxGeometry width="50" height="50" relative="1" as="geometry">
            <mxPoint x="1201.5000000000373" y="861.75" as="sourcePoint" />
            <mxPoint x="1733.0000000000905" y="621.7499999999999" as="targetPoint" />
          </mxGeometry>
        </mxCell>
        <mxCell id="m-hkB6mdQgov-lHHb5_J-109" value="7" style="text;html=1;align=center;verticalAlign=middle;whiteSpace=wrap;rounded=0;strokeWidth=3;" vertex="1" parent="1">
          <mxGeometry x="1637" y="1369" width="19" height="30" as="geometry" />
        </mxCell>
        <mxCell id="m-hkB6mdQgov-lHHb5_J-110" value="" style="endArrow=classic;html=1;rounded=1;exitX=1;exitY=0.5;exitDx=0;exitDy=0;entryX=0;entryY=0.5;entryDx=0;entryDy=0;fillColor=#6a00ff;strokeColor=#3700CC;strokeWidth=1;" edge="1" parent="1" source="m-hkB6mdQgov-lHHb5_J-7" target="m-hkB6mdQgov-lHHb5_J-31">
          <mxGeometry width="50" height="50" relative="1" as="geometry">
            <mxPoint x="1211.5000000000373" y="871.75" as="sourcePoint" />
            <mxPoint x="1743.0000000000905" y="631.7499999999999" as="targetPoint" />
          </mxGeometry>
        </mxCell>
        <mxCell id="m-hkB6mdQgov-lHHb5_J-111" value="15" style="text;html=1;align=center;verticalAlign=middle;whiteSpace=wrap;rounded=0;strokeWidth=3;" vertex="1" parent="1">
          <mxGeometry x="1637" y="1539.75" width="19" height="30" as="geometry" />
        </mxCell>
        <mxCell id="m-hkB6mdQgov-lHHb5_J-112" value="" style="endArrow=classic;html=1;rounded=1;exitX=1;exitY=0.5;exitDx=0;exitDy=0;entryX=0;entryY=0.5;entryDx=0;entryDy=0;fillColor=#008a00;strokeColor=#005700;strokeWidth=2;dashed=1;" edge="1" parent="1" source="m-hkB6mdQgov-lHHb5_J-8" target="m-hkB6mdQgov-lHHb5_J-9">
          <mxGeometry width="50" height="50" relative="1" as="geometry">
            <mxPoint x="1221.5000000000373" y="718.75" as="sourcePoint" />
            <mxPoint x="1753.0000000000905" y="478.7499999999999" as="targetPoint" />
          </mxGeometry>
        </mxCell>
        <mxCell id="m-hkB6mdQgov-lHHb5_J-113" value="5" style="text;html=1;align=center;verticalAlign=middle;whiteSpace=wrap;rounded=0;fontStyle=1;strokeWidth=3;" vertex="1" parent="1">
          <mxGeometry x="1602" y="569.75" width="19" height="30" as="geometry" />
        </mxCell>
        <mxCell id="m-hkB6mdQgov-lHHb5_J-114" value="" style="endArrow=classic;html=1;rounded=1;exitX=1;exitY=0.5;exitDx=0;exitDy=0;entryX=0;entryY=0.5;entryDx=0;entryDy=0;fillColor=#008a00;strokeColor=#005700;strokeWidth=2;dashed=1;" edge="1" parent="1" source="m-hkB6mdQgov-lHHb5_J-8" target="m-hkB6mdQgov-lHHb5_J-10">
          <mxGeometry width="50" height="50" relative="1" as="geometry">
            <mxPoint x="1151.5000000000373" y="849.75" as="sourcePoint" />
            <mxPoint x="1683.0000000000905" y="489.7499999999999" as="targetPoint" />
          </mxGeometry>
        </mxCell>
        <mxCell id="m-hkB6mdQgov-lHHb5_J-115" value="13" style="text;html=1;align=center;verticalAlign=middle;whiteSpace=wrap;rounded=0;fontStyle=1;strokeWidth=3;" vertex="1" parent="1">
          <mxGeometry x="1602" y="654" width="19" height="30" as="geometry" />
        </mxCell>
        <mxCell id="m-hkB6mdQgov-lHHb5_J-116" value="" style="endArrow=classic;html=1;rounded=1;exitX=1;exitY=0.5;exitDx=0;exitDy=0;entryX=0;entryY=0.5;entryDx=0;entryDy=0;fillColor=#008a00;strokeColor=#005700;strokeWidth=2;dashed=1;" edge="1" parent="1" source="m-hkB6mdQgov-lHHb5_J-8" target="m-hkB6mdQgov-lHHb5_J-11">
          <mxGeometry width="50" height="50" relative="1" as="geometry">
            <mxPoint x="1161.5000000000373" y="941.75" as="sourcePoint" />
            <mxPoint x="1693.0000000000905" y="581.7499999999999" as="targetPoint" />
          </mxGeometry>
        </mxCell>
        <mxCell id="m-hkB6mdQgov-lHHb5_J-117" value="3" style="text;html=1;align=center;verticalAlign=middle;whiteSpace=wrap;rounded=0;fontStyle=1;strokeWidth=3;" vertex="1" parent="1">
          <mxGeometry x="1602" y="818.5" width="19" height="30" as="geometry" />
        </mxCell>
        <mxCell id="m-hkB6mdQgov-lHHb5_J-118" value="" style="endArrow=classic;html=1;rounded=1;exitX=1;exitY=0.5;exitDx=0;exitDy=0;entryX=0;entryY=0.5;entryDx=0;entryDy=0;fillColor=#008a00;strokeColor=#005700;strokeWidth=2;dashed=1;" edge="1" parent="1" source="m-hkB6mdQgov-lHHb5_J-8" target="m-hkB6mdQgov-lHHb5_J-12">
          <mxGeometry width="50" height="50" relative="1" as="geometry">
            <mxPoint x="1171.5000000000373" y="1028.75" as="sourcePoint" />
            <mxPoint x="1703.0000000000905" y="668.7499999999999" as="targetPoint" />
          </mxGeometry>
        </mxCell>
        <mxCell id="m-hkB6mdQgov-lHHb5_J-119" value="11" style="text;html=1;align=center;verticalAlign=middle;whiteSpace=wrap;rounded=0;fontStyle=1;strokeWidth=3;" vertex="1" parent="1">
          <mxGeometry x="1602" y="974.75" width="19" height="30" as="geometry" />
        </mxCell>
        <mxCell id="m-hkB6mdQgov-lHHb5_J-120" value="" style="endArrow=classic;html=1;rounded=1;exitX=1;exitY=0.5;exitDx=0;exitDy=0;entryX=0;entryY=0.5;entryDx=0;entryDy=0;fillColor=#008a00;strokeColor=#005700;strokeWidth=2;dashed=1;" edge="1" parent="1" source="m-hkB6mdQgov-lHHb5_J-8" target="m-hkB6mdQgov-lHHb5_J-28">
          <mxGeometry width="50" height="50" relative="1" as="geometry">
            <mxPoint x="1181.5000000000373" y="1038.75" as="sourcePoint" />
            <mxPoint x="1713.0000000000905" y="678.7499999999999" as="targetPoint" />
          </mxGeometry>
        </mxCell>
        <mxCell id="m-hkB6mdQgov-lHHb5_J-121" value="7" style="text;html=1;align=center;verticalAlign=middle;whiteSpace=wrap;rounded=0;fontStyle=1;strokeWidth=3;" vertex="1" parent="1">
          <mxGeometry x="1602" y="1058.75" width="19" height="30" as="geometry" />
        </mxCell>
        <mxCell id="m-hkB6mdQgov-lHHb5_J-122" value="" style="endArrow=classic;html=1;rounded=1;exitX=1;exitY=0.5;exitDx=0;exitDy=0;entryX=0;entryY=0.5;entryDx=0;entryDy=0;fillColor=#008a00;strokeColor=#005700;strokeWidth=2;dashed=1;" edge="1" parent="1" source="m-hkB6mdQgov-lHHb5_J-8" target="m-hkB6mdQgov-lHHb5_J-29">
          <mxGeometry width="50" height="50" relative="1" as="geometry">
            <mxPoint x="1191.5000000000373" y="1048.75" as="sourcePoint" />
            <mxPoint x="1723.0000000000905" y="688.7499999999999" as="targetPoint" />
          </mxGeometry>
        </mxCell>
        <mxCell id="m-hkB6mdQgov-lHHb5_J-123" value="15" style="text;html=1;align=center;verticalAlign=middle;whiteSpace=wrap;rounded=0;fontStyle=1;strokeWidth=3;" vertex="1" parent="1">
          <mxGeometry x="1602" y="1210.5" width="19" height="30" as="geometry" />
        </mxCell>
        <mxCell id="m-hkB6mdQgov-lHHb5_J-124" value="" style="endArrow=classic;html=1;rounded=1;exitX=1;exitY=0.5;exitDx=0;exitDy=0;entryX=0;entryY=0.5;entryDx=0;entryDy=0;fillColor=#008a00;strokeColor=#005700;strokeWidth=2;dashed=1;" edge="1" parent="1" source="m-hkB6mdQgov-lHHb5_J-8" target="m-hkB6mdQgov-lHHb5_J-30">
          <mxGeometry width="50" height="50" relative="1" as="geometry">
            <mxPoint x="1201.5000000000373" y="1058.75" as="sourcePoint" />
            <mxPoint x="1733.0000000000905" y="698.7499999999999" as="targetPoint" />
          </mxGeometry>
        </mxCell>
        <mxCell id="m-hkB6mdQgov-lHHb5_J-125" value="1" style="text;html=1;align=center;verticalAlign=middle;whiteSpace=wrap;rounded=0;fontStyle=1;strokeWidth=3;" vertex="1" parent="1">
          <mxGeometry x="1602" y="1378.5" width="19" height="30" as="geometry" />
        </mxCell>
        <mxCell id="m-hkB6mdQgov-lHHb5_J-126" value="" style="endArrow=classic;html=1;rounded=1;exitX=1;exitY=0.5;exitDx=0;exitDy=0;entryX=0;entryY=0.5;entryDx=0;entryDy=0;fillColor=#008a00;strokeColor=#005700;strokeWidth=2;dashed=1;" edge="1" parent="1" source="m-hkB6mdQgov-lHHb5_J-8" target="m-hkB6mdQgov-lHHb5_J-31">
          <mxGeometry width="50" height="50" relative="1" as="geometry">
            <mxPoint x="1211.5000000000373" y="1068.75" as="sourcePoint" />
            <mxPoint x="1743.0000000000905" y="708.7499999999999" as="targetPoint" />
          </mxGeometry>
        </mxCell>
        <mxCell id="m-hkB6mdQgov-lHHb5_J-127" value="9" style="text;html=1;align=center;verticalAlign=middle;whiteSpace=wrap;rounded=0;fontStyle=1;strokeWidth=3;" vertex="1" parent="1">
          <mxGeometry x="1602" y="1539.75" width="19" height="30" as="geometry" />
        </mxCell>
        <mxCell id="m-hkB6mdQgov-lHHb5_J-128" value="" style="endArrow=classic;html=1;rounded=1;exitX=1;exitY=0.5;exitDx=0;exitDy=0;entryX=0;entryY=0.5;entryDx=0;entryDy=0;fillColor=#e3c800;strokeColor=#B09500;strokeWidth=3;" edge="1" parent="1" source="m-hkB6mdQgov-lHHb5_J-24" target="m-hkB6mdQgov-lHHb5_J-9">
          <mxGeometry width="50" height="50" relative="1" as="geometry">
            <mxPoint x="1159.0000000000373" y="913.75" as="sourcePoint" />
            <mxPoint x="1690.5000000000905" y="553.7499999999999" as="targetPoint" />
          </mxGeometry>
        </mxCell>
        <mxCell id="m-hkB6mdQgov-lHHb5_J-129" value="3" style="text;html=1;align=center;verticalAlign=middle;whiteSpace=wrap;rounded=0;fontStyle=0;strokeWidth=3;" vertex="1" parent="1">
          <mxGeometry x="1567" y="639.75" width="19" height="30" as="geometry" />
        </mxCell>
        <mxCell id="m-hkB6mdQgov-lHHb5_J-130" value="" style="endArrow=classic;html=1;rounded=1;exitX=1;exitY=0.5;exitDx=0;exitDy=0;entryX=0;entryY=0.5;entryDx=0;entryDy=0;fillColor=#e3c800;strokeColor=#B09500;strokeWidth=3;" edge="1" parent="1" source="m-hkB6mdQgov-lHHb5_J-24" target="m-hkB6mdQgov-lHHb5_J-10">
          <mxGeometry width="50" height="50" relative="1" as="geometry">
            <mxPoint x="1231.5000000000373" y="929.75" as="sourcePoint" />
            <mxPoint x="1763.0000000000905" y="569.7499999999999" as="targetPoint" />
          </mxGeometry>
        </mxCell>
        <mxCell id="m-hkB6mdQgov-lHHb5_J-131" value="11" style="text;html=1;align=center;verticalAlign=middle;whiteSpace=wrap;rounded=0;fontStyle=0;strokeWidth=3;" vertex="1" parent="1">
          <mxGeometry x="1567" y="801.75" width="19" height="30" as="geometry" />
        </mxCell>
        <mxCell id="m-hkB6mdQgov-lHHb5_J-132" value="" style="endArrow=classic;html=1;rounded=1;exitX=1;exitY=0.5;exitDx=0;exitDy=0;entryX=0;entryY=0.5;entryDx=0;entryDy=0;fillColor=#e3c800;strokeColor=#B09500;strokeWidth=3;" edge="1" parent="1" source="m-hkB6mdQgov-lHHb5_J-24" target="m-hkB6mdQgov-lHHb5_J-11">
          <mxGeometry width="50" height="50" relative="1" as="geometry">
            <mxPoint x="1151.5000000000373" y="1051.75" as="sourcePoint" />
            <mxPoint x="1683.0000000000905" y="691.7499999999999" as="targetPoint" />
          </mxGeometry>
        </mxCell>
        <mxCell id="m-hkB6mdQgov-lHHb5_J-133" value="7" style="text;html=1;align=center;verticalAlign=middle;whiteSpace=wrap;rounded=0;fontStyle=0;strokeWidth=3;" vertex="1" parent="1">
          <mxGeometry x="1567" y="948.75" width="19" height="30" as="geometry" />
        </mxCell>
        <mxCell id="m-hkB6mdQgov-lHHb5_J-134" value="" style="endArrow=classic;html=1;rounded=1;exitX=1;exitY=0.5;exitDx=0;exitDy=0;entryX=0;entryY=0.5;entryDx=0;entryDy=0;fillColor=#e3c800;strokeColor=#B09500;strokeWidth=3;" edge="1" parent="1" source="m-hkB6mdQgov-lHHb5_J-24" target="m-hkB6mdQgov-lHHb5_J-12">
          <mxGeometry width="50" height="50" relative="1" as="geometry">
            <mxPoint x="1161.5000000000373" y="1138.75" as="sourcePoint" />
            <mxPoint x="1693.0000000000905" y="778.7499999999999" as="targetPoint" />
          </mxGeometry>
        </mxCell>
        <mxCell id="m-hkB6mdQgov-lHHb5_J-135" value="15" style="text;html=1;align=center;verticalAlign=middle;whiteSpace=wrap;rounded=0;fontStyle=0;strokeWidth=3;" vertex="1" parent="1">
          <mxGeometry x="1567" y="1018.75" width="19" height="30" as="geometry" />
        </mxCell>
        <mxCell id="m-hkB6mdQgov-lHHb5_J-136" value="" style="endArrow=classic;html=1;rounded=1;exitX=1;exitY=0.5;exitDx=0;exitDy=0;entryX=0;entryY=0.5;entryDx=0;entryDy=0;fillColor=#e3c800;strokeColor=#B09500;strokeWidth=3;" edge="1" parent="1" source="m-hkB6mdQgov-lHHb5_J-24" target="m-hkB6mdQgov-lHHb5_J-28">
          <mxGeometry width="50" height="50" relative="1" as="geometry">
            <mxPoint x="1171.5000000000373" y="1225.75" as="sourcePoint" />
            <mxPoint x="1703.0000000000905" y="865.7499999999999" as="targetPoint" />
          </mxGeometry>
        </mxCell>
        <mxCell id="m-hkB6mdQgov-lHHb5_J-137" value="1" style="text;html=1;align=center;verticalAlign=middle;whiteSpace=wrap;rounded=0;fontStyle=0;strokeWidth=3;" vertex="1" parent="1">
          <mxGeometry x="1567" y="1170.75" width="19" height="30" as="geometry" />
        </mxCell>
        <mxCell id="m-hkB6mdQgov-lHHb5_J-138" value="" style="endArrow=classic;html=1;rounded=1;exitX=1;exitY=0.5;exitDx=0;exitDy=0;entryX=0;entryY=0.5;entryDx=0;entryDy=0;fillColor=#e3c800;strokeColor=#B09500;strokeWidth=3;" edge="1" parent="1" source="m-hkB6mdQgov-lHHb5_J-24" target="m-hkB6mdQgov-lHHb5_J-29">
          <mxGeometry width="50" height="50" relative="1" as="geometry">
            <mxPoint x="1181.5000000000373" y="1235.75" as="sourcePoint" />
            <mxPoint x="1713.0000000000905" y="875.7499999999999" as="targetPoint" />
          </mxGeometry>
        </mxCell>
        <mxCell id="m-hkB6mdQgov-lHHb5_J-139" value="9" style="text;html=1;align=center;verticalAlign=middle;whiteSpace=wrap;rounded=0;fontStyle=0;strokeWidth=3;" vertex="1" parent="1">
          <mxGeometry x="1567" y="1240.5" width="19" height="30" as="geometry" />
        </mxCell>
        <mxCell id="m-hkB6mdQgov-lHHb5_J-140" value="" style="endArrow=classic;html=1;rounded=1;exitX=1;exitY=0.5;exitDx=0;exitDy=0;entryX=0;entryY=0.5;entryDx=0;entryDy=0;fillColor=#e3c800;strokeColor=#B09500;strokeWidth=3;" edge="1" parent="1" source="m-hkB6mdQgov-lHHb5_J-24" target="m-hkB6mdQgov-lHHb5_J-30">
          <mxGeometry width="50" height="50" relative="1" as="geometry">
            <mxPoint x="1151.5" y="1205.75" as="sourcePoint" />
            <mxPoint x="1683" y="1325.75" as="targetPoint" />
          </mxGeometry>
        </mxCell>
        <mxCell id="m-hkB6mdQgov-lHHb5_J-141" value="5" style="text;html=1;align=center;verticalAlign=middle;whiteSpace=wrap;rounded=0;fontStyle=0;strokeWidth=3;" vertex="1" parent="1">
          <mxGeometry x="1567" y="1399" width="19" height="30" as="geometry" />
        </mxCell>
        <mxCell id="m-hkB6mdQgov-lHHb5_J-142" value="" style="endArrow=classic;html=1;rounded=1;exitX=1;exitY=0.5;exitDx=0;exitDy=0;entryX=0;entryY=0.5;entryDx=0;entryDy=0;fillColor=#e3c800;strokeColor=#B09500;strokeWidth=3;" edge="1" parent="1" source="m-hkB6mdQgov-lHHb5_J-24" target="m-hkB6mdQgov-lHHb5_J-31">
          <mxGeometry width="50" height="50" relative="1" as="geometry">
            <mxPoint x="1161.5" y="1215.75" as="sourcePoint" />
            <mxPoint x="1693" y="1335.75" as="targetPoint" />
          </mxGeometry>
        </mxCell>
        <mxCell id="m-hkB6mdQgov-lHHb5_J-143" value="13" style="text;html=1;align=center;verticalAlign=middle;whiteSpace=wrap;rounded=0;fontStyle=0;strokeWidth=3;" vertex="1" parent="1">
          <mxGeometry x="1567" y="1549.75" width="19" height="30" as="geometry" />
        </mxCell>
        <mxCell id="m-hkB6mdQgov-lHHb5_J-144" value="" style="endArrow=classic;html=1;rounded=1;exitX=1;exitY=0.5;exitDx=0;exitDy=0;entryX=0;entryY=0.5;entryDx=0;entryDy=0;fillColor=#fa6800;strokeColor=#C73500;strokeWidth=3;dashed=1;dashPattern=8 8;" edge="1" parent="1" source="m-hkB6mdQgov-lHHb5_J-25" target="m-hkB6mdQgov-lHHb5_J-9">
          <mxGeometry width="50" height="50" relative="1" as="geometry">
            <mxPoint x="1171.5" y="908.75" as="sourcePoint" />
            <mxPoint x="1703" y="1028.75" as="targetPoint" />
          </mxGeometry>
        </mxCell>
        <mxCell id="m-hkB6mdQgov-lHHb5_J-145" value="7" style="text;html=1;align=center;verticalAlign=middle;whiteSpace=wrap;rounded=0;fontStyle=1;strokeWidth=3;" vertex="1" parent="1">
          <mxGeometry x="1527" y="818.5" width="19" height="30" as="geometry" />
        </mxCell>
        <mxCell id="m-hkB6mdQgov-lHHb5_J-146" value="" style="endArrow=classic;html=1;rounded=1;exitX=1;exitY=0.5;exitDx=0;exitDy=0;entryX=0;entryY=0.5;entryDx=0;entryDy=0;fillColor=#fa6800;strokeColor=#C73500;strokeWidth=3;dashed=1;dashPattern=8 8;" edge="1" parent="1" source="m-hkB6mdQgov-lHHb5_J-25" target="m-hkB6mdQgov-lHHb5_J-10">
          <mxGeometry width="50" height="50" relative="1" as="geometry">
            <mxPoint x="1151.4999999999927" y="1089.75" as="sourcePoint" />
            <mxPoint x="1683.0000000000068" y="489.75" as="targetPoint" />
          </mxGeometry>
        </mxCell>
        <mxCell id="m-hkB6mdQgov-lHHb5_J-147" value="15" style="text;html=1;align=center;verticalAlign=middle;whiteSpace=wrap;rounded=0;fontStyle=1;strokeWidth=3;" vertex="1" parent="1">
          <mxGeometry x="1527" y="958.75" width="19" height="30" as="geometry" />
        </mxCell>
        <mxCell id="m-hkB6mdQgov-lHHb5_J-148" value="" style="endArrow=classic;html=1;rounded=1;exitX=1;exitY=0.5;exitDx=0;exitDy=0;entryX=0;entryY=0.5;entryDx=0;entryDy=0;fillColor=#fa6800;strokeColor=#C73500;strokeWidth=3;dashed=1;dashPattern=8 8;" edge="1" parent="1" source="m-hkB6mdQgov-lHHb5_J-25" target="m-hkB6mdQgov-lHHb5_J-11">
          <mxGeometry width="50" height="50" relative="1" as="geometry">
            <mxPoint x="1161.4999999999927" y="1181.75" as="sourcePoint" />
            <mxPoint x="1693.0000000000068" y="581.75" as="targetPoint" />
          </mxGeometry>
        </mxCell>
        <mxCell id="m-hkB6mdQgov-lHHb5_J-149" value="1" style="text;html=1;align=center;verticalAlign=middle;whiteSpace=wrap;rounded=0;fontStyle=1;strokeWidth=3;" vertex="1" parent="1">
          <mxGeometry x="1527" y="1028.75" width="19" height="30" as="geometry" />
        </mxCell>
        <mxCell id="m-hkB6mdQgov-lHHb5_J-150" value="" style="endArrow=classic;html=1;rounded=1;exitX=1;exitY=0.5;exitDx=0;exitDy=0;entryX=0;entryY=0.5;entryDx=0;entryDy=0;fillColor=#fa6800;strokeColor=#C73500;strokeWidth=3;dashed=1;dashPattern=8 8;" edge="1" parent="1" source="m-hkB6mdQgov-lHHb5_J-25" target="m-hkB6mdQgov-lHHb5_J-12">
          <mxGeometry width="50" height="50" relative="1" as="geometry">
            <mxPoint x="1151.4999999999682" y="1248.75" as="sourcePoint" />
            <mxPoint x="1682.9999999999732" y="888.75" as="targetPoint" />
          </mxGeometry>
        </mxCell>
        <mxCell id="m-hkB6mdQgov-lHHb5_J-151" value="9" style="text;html=1;align=center;verticalAlign=middle;whiteSpace=wrap;rounded=0;fontStyle=1;strokeWidth=3;" vertex="1" parent="1">
          <mxGeometry x="1527" y="1165.75" width="19" height="30" as="geometry" />
        </mxCell>
        <mxCell id="m-hkB6mdQgov-lHHb5_J-152" value="" style="endArrow=classic;html=1;rounded=1;exitX=1;exitY=0.5;exitDx=0;exitDy=0;entryX=0;entryY=0.5;entryDx=0;entryDy=0;fillColor=#fa6800;strokeColor=#C73500;strokeWidth=3;dashed=1;dashPattern=8 8;" edge="1" parent="1" source="m-hkB6mdQgov-lHHb5_J-25" target="m-hkB6mdQgov-lHHb5_J-28">
          <mxGeometry width="50" height="50" relative="1" as="geometry">
            <mxPoint x="1161.4999999999682" y="1335.75" as="sourcePoint" />
            <mxPoint x="1692.9999999999732" y="975.75" as="targetPoint" />
          </mxGeometry>
        </mxCell>
        <mxCell id="m-hkB6mdQgov-lHHb5_J-153" value="5" style="text;html=1;align=center;verticalAlign=middle;whiteSpace=wrap;rounded=0;fontStyle=1;strokeWidth=3;" vertex="1" parent="1">
          <mxGeometry x="1527" y="1225.75" width="19" height="30" as="geometry" />
        </mxCell>
        <mxCell id="m-hkB6mdQgov-lHHb5_J-154" value="" style="endArrow=classic;html=1;rounded=1;exitX=1;exitY=0.5;exitDx=0;exitDy=0;entryX=0;entryY=0.5;entryDx=0;entryDy=0;fillColor=#fa6800;strokeColor=#C73500;strokeWidth=3;dashed=1;dashPattern=8 8;" edge="1" parent="1" source="m-hkB6mdQgov-lHHb5_J-25" target="m-hkB6mdQgov-lHHb5_J-29">
          <mxGeometry width="50" height="50" relative="1" as="geometry">
            <mxPoint x="1171.4999999999682" y="1429.75" as="sourcePoint" />
            <mxPoint x="1702.9999999999732" y="1069.75" as="targetPoint" />
          </mxGeometry>
        </mxCell>
        <mxCell id="m-hkB6mdQgov-lHHb5_J-155" value="13" style="text;html=1;align=center;verticalAlign=middle;whiteSpace=wrap;rounded=0;fontStyle=1;strokeWidth=3;" vertex="1" parent="1">
          <mxGeometry x="1527" y="1378.5" width="19" height="30" as="geometry" />
        </mxCell>
        <mxCell id="m-hkB6mdQgov-lHHb5_J-156" value="" style="endArrow=classic;html=1;rounded=1;exitX=1;exitY=0.5;exitDx=0;exitDy=0;entryX=0;entryY=0.5;entryDx=0;entryDy=0;fillColor=#fa6800;strokeColor=#C73500;strokeWidth=3;dashed=1;dashPattern=8 8;" edge="1" parent="1" source="m-hkB6mdQgov-lHHb5_J-25" target="m-hkB6mdQgov-lHHb5_J-30">
          <mxGeometry width="50" height="50" relative="1" as="geometry">
            <mxPoint x="1151.5000000000377" y="1409.75" as="sourcePoint" />
            <mxPoint x="1683.0000000000905" y="1409.75" as="targetPoint" />
          </mxGeometry>
        </mxCell>
        <mxCell id="m-hkB6mdQgov-lHHb5_J-157" value="" style="endArrow=classic;html=1;rounded=1;exitX=1;exitY=0.5;exitDx=0;exitDy=0;entryX=0;entryY=0.5;entryDx=0;entryDy=0;fillColor=#fa6800;strokeColor=#C73500;strokeWidth=3;dashed=1;dashPattern=8 8;" edge="1" parent="1" source="m-hkB6mdQgov-lHHb5_J-25" target="m-hkB6mdQgov-lHHb5_J-31">
          <mxGeometry width="50" height="50" relative="1" as="geometry">
            <mxPoint x="1151.5000000000377" y="1409.75" as="sourcePoint" />
            <mxPoint x="1683.0000000000905" y="1529.75" as="targetPoint" />
          </mxGeometry>
        </mxCell>
        <mxCell id="m-hkB6mdQgov-lHHb5_J-158" value="3" style="text;html=1;align=center;verticalAlign=middle;whiteSpace=wrap;rounded=0;fontStyle=1;strokeWidth=3;" vertex="1" parent="1">
          <mxGeometry x="1527" y="1440.75" width="19" height="30" as="geometry" />
        </mxCell>
        <mxCell id="m-hkB6mdQgov-lHHb5_J-159" value="11" style="text;html=1;align=center;verticalAlign=middle;whiteSpace=wrap;rounded=0;fontStyle=1;strokeWidth=3;" vertex="1" parent="1">
          <mxGeometry x="1527" y="1578.5" width="19" height="30" as="geometry" />
        </mxCell>
        <mxCell id="m-hkB6mdQgov-lHHb5_J-160" value="" style="endArrow=classic;html=1;rounded=1;exitX=1;exitY=0.5;exitDx=0;exitDy=0;entryX=0;entryY=0.5;entryDx=0;entryDy=0;fillColor=#a0522d;strokeColor=#6D1F00;strokeWidth=4;" edge="1" parent="1" source="m-hkB6mdQgov-lHHb5_J-26" target="m-hkB6mdQgov-lHHb5_J-9">
          <mxGeometry width="50" height="50" relative="1" as="geometry">
            <mxPoint x="1151.5" y="1008.75" as="sourcePoint" />
            <mxPoint x="1683" y="1248.75" as="targetPoint" />
          </mxGeometry>
        </mxCell>
        <mxCell id="m-hkB6mdQgov-lHHb5_J-161" value="" style="endArrow=classic;html=1;rounded=1;exitX=1;exitY=0.5;exitDx=0;exitDy=0;entryX=0;entryY=0.5;entryDx=0;entryDy=0;fillColor=#a0522d;strokeColor=#6D1F00;strokeWidth=4;" edge="1" parent="1" source="m-hkB6mdQgov-lHHb5_J-26" target="m-hkB6mdQgov-lHHb5_J-10">
          <mxGeometry width="50" height="50" relative="1" as="geometry">
            <mxPoint x="1151.5" y="1209.75" as="sourcePoint" />
            <mxPoint x="1683" y="489.75" as="targetPoint" />
          </mxGeometry>
        </mxCell>
        <mxCell id="m-hkB6mdQgov-lHHb5_J-162" value="" style="endArrow=classic;html=1;rounded=1;exitX=1;exitY=0.5;exitDx=0;exitDy=0;entryX=0;entryY=0.5;entryDx=0;entryDy=0;fillColor=#a0522d;strokeColor=#6D1F00;strokeWidth=4;" edge="1" parent="1" source="m-hkB6mdQgov-lHHb5_J-26" target="m-hkB6mdQgov-lHHb5_J-11">
          <mxGeometry width="50" height="50" relative="1" as="geometry">
            <mxPoint x="1161.5" y="1301.75" as="sourcePoint" />
            <mxPoint x="1693" y="581.75" as="targetPoint" />
          </mxGeometry>
        </mxCell>
        <mxCell id="m-hkB6mdQgov-lHHb5_J-163" value="" style="endArrow=classic;html=1;rounded=1;exitX=1;exitY=0.5;exitDx=0;exitDy=0;entryX=0;entryY=0.5;entryDx=0;entryDy=0;fillColor=#a0522d;strokeColor=#6D1F00;strokeWidth=4;" edge="1" parent="1" source="m-hkB6mdQgov-lHHb5_J-26" target="m-hkB6mdQgov-lHHb5_J-12">
          <mxGeometry width="50" height="50" relative="1" as="geometry">
            <mxPoint x="1171.5" y="1388.75" as="sourcePoint" />
            <mxPoint x="1703" y="668.75" as="targetPoint" />
          </mxGeometry>
        </mxCell>
        <mxCell id="m-hkB6mdQgov-lHHb5_J-164" value="" style="endArrow=classic;html=1;rounded=1;exitX=1;exitY=0.5;exitDx=0;exitDy=0;entryX=0;entryY=0.5;entryDx=0;entryDy=0;fillColor=#a0522d;strokeColor=#6D1F00;strokeWidth=4;" edge="1" parent="1" source="m-hkB6mdQgov-lHHb5_J-26" target="m-hkB6mdQgov-lHHb5_J-28">
          <mxGeometry width="50" height="50" relative="1" as="geometry">
            <mxPoint x="1181.5" y="1475.75" as="sourcePoint" />
            <mxPoint x="1713" y="755.75" as="targetPoint" />
          </mxGeometry>
        </mxCell>
        <mxCell id="m-hkB6mdQgov-lHHb5_J-165" value="" style="endArrow=classic;html=1;rounded=1;exitX=1;exitY=0.5;exitDx=0;exitDy=0;entryX=0;entryY=0.5;entryDx=0;entryDy=0;fillColor=#a0522d;strokeColor=#6D1F00;strokeWidth=4;" edge="1" parent="1" source="m-hkB6mdQgov-lHHb5_J-26" target="m-hkB6mdQgov-lHHb5_J-29">
          <mxGeometry width="50" height="50" relative="1" as="geometry">
            <mxPoint x="1191.5" y="1569.75" as="sourcePoint" />
            <mxPoint x="1723" y="849.75" as="targetPoint" />
          </mxGeometry>
        </mxCell>
        <mxCell id="m-hkB6mdQgov-lHHb5_J-166" value="" style="endArrow=classic;html=1;rounded=1;exitX=1;exitY=0.5;exitDx=0;exitDy=0;entryX=0;entryY=0.5;entryDx=0;entryDy=0;fillColor=#a0522d;strokeColor=#6D1F00;strokeWidth=4;" edge="1" parent="1" source="m-hkB6mdQgov-lHHb5_J-26" target="m-hkB6mdQgov-lHHb5_J-30">
          <mxGeometry width="50" height="50" relative="1" as="geometry">
            <mxPoint x="1201.5" y="1659.75" as="sourcePoint" />
            <mxPoint x="1733" y="939.75" as="targetPoint" />
          </mxGeometry>
        </mxCell>
        <mxCell id="m-hkB6mdQgov-lHHb5_J-167" value="" style="endArrow=classic;html=1;rounded=1;exitX=1;exitY=0.5;exitDx=0;exitDy=0;fillColor=#a0522d;strokeColor=#6D1F00;entryX=0;entryY=0.5;entryDx=0;entryDy=0;strokeWidth=4;" edge="1" parent="1" source="m-hkB6mdQgov-lHHb5_J-26" target="m-hkB6mdQgov-lHHb5_J-31">
          <mxGeometry width="50" height="50" relative="1" as="geometry">
            <mxPoint x="1211.5" y="1669.75" as="sourcePoint" />
            <mxPoint x="1583" y="1719.75" as="targetPoint" />
          </mxGeometry>
        </mxCell>
        <mxCell id="m-hkB6mdQgov-lHHb5_J-168" value="" style="endArrow=classic;html=1;rounded=1;exitX=1;exitY=0.5;exitDx=0;exitDy=0;entryX=0;entryY=0.5;entryDx=0;entryDy=0;fillColor=#1ba1e2;strokeColor=#006EAF;strokeWidth=3;" edge="1" parent="1" source="m-hkB6mdQgov-lHHb5_J-27" target="m-hkB6mdQgov-lHHb5_J-9">
          <mxGeometry width="50" height="50" relative="1" as="geometry">
            <mxPoint x="1221.5" y="1198.75" as="sourcePoint" />
            <mxPoint x="1753" y="478.75" as="targetPoint" />
          </mxGeometry>
        </mxCell>
        <mxCell id="m-hkB6mdQgov-lHHb5_J-169" value="" style="endArrow=classic;html=1;rounded=1;exitX=1;exitY=0.5;exitDx=0;exitDy=0;entryX=0;entryY=0.5;entryDx=0;entryDy=0;fillColor=#1ba1e2;strokeColor=#006EAF;strokeWidth=3;" edge="1" parent="1" source="m-hkB6mdQgov-lHHb5_J-27" target="m-hkB6mdQgov-lHHb5_J-10">
          <mxGeometry width="50" height="50" relative="1" as="geometry">
            <mxPoint x="1151.5" y="1329.75" as="sourcePoint" />
            <mxPoint x="1683" y="489.75" as="targetPoint" />
          </mxGeometry>
        </mxCell>
        <mxCell id="m-hkB6mdQgov-lHHb5_J-170" value="" style="endArrow=classic;html=1;rounded=1;exitX=1;exitY=0.5;exitDx=0;exitDy=0;entryX=0;entryY=0.5;entryDx=0;entryDy=0;fillColor=#1ba1e2;strokeColor=#006EAF;strokeWidth=3;" edge="1" parent="1" source="m-hkB6mdQgov-lHHb5_J-27" target="m-hkB6mdQgov-lHHb5_J-11">
          <mxGeometry width="50" height="50" relative="1" as="geometry">
            <mxPoint x="1161.5" y="1421.75" as="sourcePoint" />
            <mxPoint x="1693" y="581.75" as="targetPoint" />
          </mxGeometry>
        </mxCell>
        <mxCell id="m-hkB6mdQgov-lHHb5_J-171" value="" style="endArrow=classic;html=1;rounded=1;exitX=1;exitY=0.5;exitDx=0;exitDy=0;entryX=0;entryY=0.5;entryDx=0;entryDy=0;fillColor=#1ba1e2;strokeColor=#006EAF;strokeWidth=3;" edge="1" parent="1" source="m-hkB6mdQgov-lHHb5_J-27" target="m-hkB6mdQgov-lHHb5_J-12">
          <mxGeometry width="50" height="50" relative="1" as="geometry">
            <mxPoint x="1171.5" y="1508.75" as="sourcePoint" />
            <mxPoint x="1703" y="668.75" as="targetPoint" />
          </mxGeometry>
        </mxCell>
        <mxCell id="m-hkB6mdQgov-lHHb5_J-172" value="" style="endArrow=classic;html=1;rounded=1;exitX=1;exitY=0.5;exitDx=0;exitDy=0;entryX=0;entryY=0.5;entryDx=0;entryDy=0;fillColor=#1ba1e2;strokeColor=#006EAF;strokeWidth=3;" edge="1" parent="1" source="m-hkB6mdQgov-lHHb5_J-27" target="m-hkB6mdQgov-lHHb5_J-28">
          <mxGeometry width="50" height="50" relative="1" as="geometry">
            <mxPoint x="1181.5" y="1595.75" as="sourcePoint" />
            <mxPoint x="1713" y="755.75" as="targetPoint" />
          </mxGeometry>
        </mxCell>
        <mxCell id="m-hkB6mdQgov-lHHb5_J-173" value="" style="endArrow=classic;html=1;rounded=1;exitX=1;exitY=0.5;exitDx=0;exitDy=0;entryX=0;entryY=0.5;entryDx=0;entryDy=0;fillColor=#1ba1e2;strokeColor=#006EAF;strokeWidth=3;" edge="1" parent="1" source="m-hkB6mdQgov-lHHb5_J-27" target="m-hkB6mdQgov-lHHb5_J-29">
          <mxGeometry width="50" height="50" relative="1" as="geometry">
            <mxPoint x="1191.5" y="1689.75" as="sourcePoint" />
            <mxPoint x="1723" y="849.75" as="targetPoint" />
          </mxGeometry>
        </mxCell>
        <mxCell id="m-hkB6mdQgov-lHHb5_J-174" value="" style="endArrow=classic;html=1;rounded=1;exitX=1;exitY=0.5;exitDx=0;exitDy=0;entryX=0;entryY=0.5;entryDx=0;entryDy=0;fillColor=#1ba1e2;strokeColor=#006EAF;strokeWidth=3;" edge="1" parent="1" source="m-hkB6mdQgov-lHHb5_J-27" target="m-hkB6mdQgov-lHHb5_J-30">
          <mxGeometry width="50" height="50" relative="1" as="geometry">
            <mxPoint x="1201.5" y="1779.75" as="sourcePoint" />
            <mxPoint x="1733" y="939.75" as="targetPoint" />
          </mxGeometry>
        </mxCell>
        <mxCell id="m-hkB6mdQgov-lHHb5_J-175" value="" style="endArrow=classic;html=1;rounded=1;exitX=1;exitY=0.5;exitDx=0;exitDy=0;entryX=0;entryY=0.5;entryDx=0;entryDy=0;fillColor=#1ba1e2;strokeColor=#006EAF;strokeWidth=3;" edge="1" parent="1" source="m-hkB6mdQgov-lHHb5_J-27" target="m-hkB6mdQgov-lHHb5_J-31">
          <mxGeometry width="50" height="50" relative="1" as="geometry">
            <mxPoint x="1211.5" y="1868.75" as="sourcePoint" />
            <mxPoint x="1743" y="1028.75" as="targetPoint" />
          </mxGeometry>
        </mxCell>
      </root>
    </mxGraphModel>
  </diagram>
</mxfile>
